<svg width="24" height="24" viewBox="0 0 512 512" version="1.1" xmlns="http://www.w3.org/2000/svg" desc="Created on https://convert2svg.com/" ><path fill="rgb(0,0,1)" stroke="rgb(0,0,1)" stroke-width="1" opacity="0" d="M 0 0 L 25 0.5 Q 13.1 3.1 7 11.5 Q 2 16.5 0.5 25 L 0 0 Z " /><path fill="rgb(0,0,1)" stroke="rgb(0,0,1)" stroke-width="1" opacity="0" d="M 487.5 0 L 512 0 L 512 24.5 L 511 24.5 Q 508.9 12.6 500.5 7 L 492.5 2 L 487.5 1 L 487.5 0 Z " /><path fill="rgb(0,0,1)" stroke="rgb(0,0,1)" stroke-width="1" opacity="0" d="M 0.5 487 Q 3.1 498.9 11.5 505 Q 16.5 510 25 511.5 L 0 512 L 0.5 487 Z " /><path fill="rgb(0,0,1)" stroke="rgb(0,0,1)" stroke-width="1" opacity="0" d="M 511.5 487 L 512 512 L 487 511.5 Q 498.9 508.9 505 500.5 Q 510 495.5 511.5 487 Z " /><path fill="rgb(141,195,254)" stroke="rgb(141,195,254)" stroke-width="1" opacity="1" d="M 31.5 22 L 481 22.5 L 31.5 23 L 31.5 22 Z " /><path fill="rgb(141,195,254)" stroke="rgb(141,195,254)" stroke-width="1" opacity="1" d="M 22.5 31 L 23 480.5 L 22 480.5 L 22.5 31 Z " /><path fill="rgb(141,195,254)" stroke="rgb(141,195,254)" stroke-width="1" opacity="1" d="M 489.5 31 L 490 480.5 L 489 480.5 L 489.5 31 Z " /><path fill="rgb(141,195,254)" stroke="rgb(141,195,254)" stroke-width="1" opacity="1" d="M 307.5 89 L 312 89.5 L 307.5 90 L 307.5 89 Z " /><path fill="rgb(141,195,254)" stroke="rgb(141,195,254)" stroke-width="1" opacity="1" d="M 137.5 91 L 135.5 94 L 137.5 91 Z " /><path fill="rgb(141,195,254)" stroke="rgb(141,195,254)" stroke-width="1" opacity="1" d="M 133.5 98 L 134 413.5 L 133 413.5 L 133.5 98 Z " /><path fill="rgb(141,195,254)" stroke="rgb(141,195,254)" stroke-width="1" opacity="1" d="M 344.5 102 L 345.5 104 L 344.5 102 Z " /><path fill="rgb(141,195,254)" stroke="rgb(141,195,254)" stroke-width="1" opacity="1" d="M 347.5 104 L 349.5 107 L 347.5 104 Z " /><path fill="rgb(141,195,254)" stroke="rgb(141,195,254)" stroke-width="1" opacity="1" d="M 353.5 109 L 357.5 114 L 353.5 109 Z " /><path fill="rgb(141,195,254)" stroke="rgb(141,195,254)" stroke-width="1" opacity="1" d="M 156.5 111 L 307 111.5 L 156.5 112 L 156.5 111 Z " /><path fill="rgb(141,195,254)" stroke="rgb(141,195,254)" stroke-width="1" opacity="1" d="M 310.5 112 L 313 112.5 L 310.5 113 L 310.5 112 Z " /><path fill="rgb(141,195,254)" stroke="rgb(141,195,254)" stroke-width="1" opacity="1" d="M 361.5 118 L 362.5 120 L 361.5 118 Z " /><path fill="rgb(141,195,254)" stroke="rgb(141,195,254)" stroke-width="1" opacity="1" d="M 329.5 119 L 330.5 121 L 329.5 119 Z " /><path fill="rgb(141,195,254)" stroke="rgb(141,195,254)" stroke-width="1" opacity="1" d="M 332.5 121 L 333.5 123 L 332.5 121 Z " /><path fill="rgb(141,195,254)" stroke="rgb(141,195,254)" stroke-width="1" opacity="1" d="M 364.5 122 L 365.5 124 L 364.5 122 Z " /><path fill="rgb(141,195,254)" stroke="rgb(141,195,254)" stroke-width="1" opacity="1" d="M 336.5 124 L 343.5 132 L 336.5 124 Z " /><path fill="rgb(141,195,254)" stroke="rgb(141,195,254)" stroke-width="1" opacity="1" d="M 345.5 134 L 346.5 136 L 345.5 134 Z " /><path fill="rgb(141,195,254)" stroke="rgb(141,195,254)" stroke-width="1" opacity="1" d="M 377.5 153 L 378 155.5 L 377 155.5 L 377.5 153 Z " /><path fill="rgb(141,195,254)" stroke="rgb(141,195,254)" stroke-width="1" opacity="1" d="M 355.5 158 L 356 160.5 L 355 160.5 L 355.5 158 Z " /><path fill="rgb(141,195,254)" stroke="rgb(141,195,254)" stroke-width="1" opacity="1" d="M 378.5 161 L 379 194.5 L 378 194.5 L 378.5 161 Z " /><path fill="rgb(141,195,254)" stroke="rgb(141,195,254)" stroke-width="1" opacity="1" d="M 355.5 195 L 356 197.5 L 355 197.5 L 355.5 195 Z " /><path fill="rgb(141,195,254)" stroke="rgb(141,195,254)" stroke-width="1" opacity="1" d="M 377.5 200 L 378 202.5 L 377 202.5 L 377.5 200 Z " /><path fill="rgb(141,195,254)" stroke="rgb(141,195,254)" stroke-width="1" opacity="1" d="M 348.5 217 L 347.5 219 L 348.5 217 Z " /><path fill="rgb(141,195,254)" stroke="rgb(141,195,254)" stroke-width="1" opacity="1" d="M 346.5 220 L 345.5 222 L 346.5 220 Z " /><path fill="rgb(141,195,254)" stroke="rgb(141,195,254)" stroke-width="1" opacity="1" d="M 343.5 224 L 335.5 233 L 343.5 224 Z " /><path fill="rgb(141,195,254)" stroke="rgb(141,195,254)" stroke-width="1" opacity="1" d="M 365.5 232 L 364.5 234 L 365.5 232 Z " /><path fill="rgb(141,195,254)" stroke="rgb(141,195,254)" stroke-width="1" opacity="1" d="M 332.5 234 L 331.5 236 L 332.5 234 Z " /><path fill="rgb(141,195,254)" stroke="rgb(141,195,254)" stroke-width="1" opacity="1" d="M 362.5 236 L 361.5 238 L 362.5 236 Z " /><path fill="rgb(141,195,254)" stroke="rgb(141,195,254)" stroke-width="1" opacity="1" d="M 358.5 241 L 353.5 247 L 358.5 241 Z " /><path fill="rgb(141,195,254)" stroke="rgb(141,195,254)" stroke-width="1" opacity="1" d="M 301.5 244 L 308 244.5 L 301.5 245 L 301.5 244 Z " /><path fill="rgb(141,195,254)" stroke="rgb(141,195,254)" stroke-width="1" opacity="1" d="M 349.5 249 L 347.5 252 L 349.5 249 Z " /><path fill="rgb(141,195,254)" stroke="rgb(141,195,254)" stroke-width="1" opacity="1" d="M 347.5 260 L 349.5 263 L 347.5 260 Z " /><path fill="rgb(141,195,254)" stroke="rgb(141,195,254)" stroke-width="1" opacity="1" d="M 352.5 264 L 358.5 271 L 352.5 264 Z " /><path fill="rgb(141,195,254)" stroke="rgb(141,195,254)" stroke-width="1" opacity="1" d="M 301.5 267 L 308 267.5 L 301.5 268 L 301.5 267 Z " /><path fill="rgb(141,195,254)" stroke="rgb(141,195,254)" stroke-width="1" opacity="1" d="M 361.5 274 L 362.5 276 L 361.5 274 Z " /><path fill="rgb(141,195,254)" stroke="rgb(141,195,254)" stroke-width="1" opacity="1" d="M 331.5 276 L 332.5 278 L 331.5 276 Z " /><path fill="rgb(141,195,254)" stroke="rgb(141,195,254)" stroke-width="1" opacity="1" d="M 364.5 278 L 365.5 280 L 364.5 278 Z " /><path fill="rgb(141,195,254)" stroke="rgb(141,195,254)" stroke-width="1" opacity="1" d="M 335.5 279 L 343.5 288 L 335.5 279 Z " /><path fill="rgb(141,195,254)" stroke="rgb(141,195,254)" stroke-width="1" opacity="1" d="M 345.5 290 L 346.5 292 L 345.5 290 Z " /><path fill="rgb(141,195,254)" stroke="rgb(141,195,254)" stroke-width="1" opacity="1" d="M 347.5 293 L 348.5 295 L 347.5 293 Z " /><path fill="rgb(141,195,254)" stroke="rgb(141,195,254)" stroke-width="1" opacity="1" d="M 377.5 309 L 378 311.5 L 377 311.5 L 377.5 309 Z " /><path fill="rgb(141,195,254)" stroke="rgb(141,195,254)" stroke-width="1" opacity="1" d="M 355.5 314 L 356 316.5 L 355 316.5 L 355.5 314 Z " /><path fill="rgb(141,195,254)" stroke="rgb(141,195,254)" stroke-width="1" opacity="1" d="M 378.5 317 L 379 350.5 L 378 350.5 L 378.5 317 Z " /><path fill="rgb(141,195,254)" stroke="rgb(141,195,254)" stroke-width="1" opacity="1" d="M 355.5 351 L 356 353.5 L 355 353.5 L 355.5 351 Z " /><path fill="rgb(141,195,254)" stroke="rgb(141,195,254)" stroke-width="1" opacity="1" d="M 377.5 356 L 378 358.5 L 377 358.5 L 377.5 356 Z " /><path fill="rgb(141,195,254)" stroke="rgb(141,195,254)" stroke-width="1" opacity="1" d="M 346.5 376 L 344.5 379 L 346.5 376 Z " /><path fill="rgb(141,195,254)" stroke="rgb(141,195,254)" stroke-width="1" opacity="1" d="M 343.5 380 L 336.5 388 L 343.5 380 Z " /><path fill="rgb(141,195,254)" stroke="rgb(141,195,254)" stroke-width="1" opacity="1" d="M 368.5 383 L 367.5 385 L 368.5 383 Z " /><path fill="rgb(141,195,254)" stroke="rgb(141,195,254)" stroke-width="1" opacity="1" d="M 365.5 388 L 364.5 390 L 365.5 388 Z " /><path fill="rgb(141,195,254)" stroke="rgb(141,195,254)" stroke-width="1" opacity="1" d="M 333.5 389 L 332.5 391 L 333.5 389 Z " /><path fill="rgb(141,195,254)" stroke="rgb(141,195,254)" stroke-width="1" opacity="1" d="M 330.5 391 L 329.5 393 L 330.5 391 Z " /><path fill="rgb(141,195,254)" stroke="rgb(141,195,254)" stroke-width="1" opacity="1" d="M 362.5 392 L 361.5 394 L 362.5 392 Z " /><path fill="rgb(141,195,254)" stroke="rgb(141,195,254)" stroke-width="1" opacity="1" d="M 357.5 398 L 353.5 403 L 357.5 398 Z " /><path fill="rgb(141,195,254)" stroke="rgb(141,195,254)" stroke-width="1" opacity="1" d="M 310.5 399 L 313 399.5 L 310.5 400 L 310.5 399 Z " /><path fill="rgb(141,195,254)" stroke="rgb(141,195,254)" stroke-width="1" opacity="1" d="M 156.5 400 L 307 400.5 L 156.5 401 L 156.5 400 Z " /><path fill="rgb(141,195,254)" stroke="rgb(141,195,254)" stroke-width="1" opacity="1" d="M 349.5 405 L 347.5 408 L 349.5 405 Z " /><path fill="rgb(141,195,254)" stroke="rgb(141,195,254)" stroke-width="1" opacity="1" d="M 345.5 408 L 344.5 410 L 345.5 408 Z " /><path fill="rgb(141,195,254)" stroke="rgb(141,195,254)" stroke-width="1" opacity="1" d="M 135.5 418 L 137.5 421 L 135.5 418 Z " /><path fill="rgb(141,195,254)" stroke="rgb(141,195,254)" stroke-width="1" opacity="1" d="M 307.5 422 L 312 422.5 L 307.5 423 L 307.5 422 Z " /><path fill="rgb(141,195,254)" stroke="rgb(141,195,254)" stroke-width="1" opacity="1" d="M 31.5 489 L 481 489.5 L 31.5 490 L 31.5 489 Z " /><path fill="rgb(0,121,254)" stroke="rgb(0,121,254)" stroke-width="1" opacity="0.6039215686274509" d="M 25.5 0 L 30 0.5 Q 16 2 9 10.5 Q 1.8 17.3 0.5 30 L 0 25.5 Q 3.1 13.6 11.5 7 L 25.5 0 Z " /><path fill="rgb(0,121,254)" stroke="rgb(0,121,254)" stroke-width="1" opacity="0.6039215686274509" d="M 482.5 0 Q 498 1.5 505 11.5 Q 511.2 17.8 512 29.5 L 511 29.5 L 509 19.5 L 501.5 9 L 492.5 3 L 482.5 1 L 482.5 0 Z " /><path fill="rgb(0,121,254)" stroke="rgb(0,121,254)" stroke-width="1" opacity="0.6039215686274509" d="M 0.5 482 Q 2 496 10.5 503 Q 17.3 510.2 30 511.5 L 25.5 512 Q 13.6 508.9 7 500.5 Q 0.3 493.8 0.5 482 Z " /><path fill="rgb(0,121,254)" stroke="rgb(0,121,254)" stroke-width="1" opacity="0.6039215686274509" d="M 511.5 482 L 512 486.5 Q 508.9 498.4 500.5 505 Q 494.2 511.2 482.5 512 L 482.5 511 Q 499.4 509.4 506 497.5 Q 510.7 491.7 511.5 482 Z " /><path fill="rgb(0,122,255)" stroke="rgb(0,122,255)" stroke-width="1" opacity="1" d="M 30.5 0 L 481.5 0 L 492.5 3 L 503 10.5 L 509 19.5 L 512 30.5 L 512 481.5 L 508 494.5 L 497.5 506 L 492.5 509 L 481.5 512 L 30.5 512 L 19.5 509 L 9 501.5 L 3 492.5 L 0 481.5 L 0 30.5 L 3 19.5 L 10.5 9 L 19.5 3 L 30.5 0 Z M 32 22 L 25 25 L 22 32 L 22 481 L 25 487 L 32 490 L 481 490 L 487 487 L 490 481 L 490 32 L 487 25 L 481 22 L 32 22 Z " /><path fill="rgb(0,122,255)" stroke="rgb(0,122,255)" stroke-width="1" opacity="1" d="M 142.5 89 L 306.5 89 Q 308.3 91.8 314.5 90 Q 344.8 96.7 361 117.5 Q 372.2 130.8 377 150.5 Q 375.8 155.3 378 156.5 L 378 199.5 Q 372.1 232.1 350.5 249 L 341 255 Q 339.9 257.7 342.5 257 L 361 273.5 Q 372.4 286.6 377 306.5 Q 375.8 311.2 378 312.5 L 378 355.5 Q 372 388 350.5 405 Q 341.2 413.2 328.5 418 L 306.5 423 L 142.5 423 L 135 417.5 L 134 415.5 L 134 96.5 L 138.5 91 L 142.5 89 Z M 156 111 L 156 245 L 308 245 Q 325 242 336 233 Q 352 221 356 198 L 356 159 Q 353 142 344 132 Q 331 115 307 111 L 156 111 Z M 156 267 L 156 401 L 307 401 L 322 397 L 337 388 Q 352 376 356 354 L 356 315 Q 353 298 344 288 Q 332 271 308 267 L 156 267 Z " /><path fill="rgb(203,227,255)" stroke="rgb(203,227,255)" stroke-width="1" opacity="1" d="M 27.5 24 L 24.5 28 L 27.5 24 Z " /><path fill="rgb(203,227,255)" stroke="rgb(203,227,255)" stroke-width="1" opacity="1" d="M 484.5 24 L 487.5 28 L 484.5 24 Z " /><path fill="rgb(203,227,255)" stroke="rgb(203,227,255)" stroke-width="1" opacity="1" d="M 350.5 106 L 352.5 109 L 350.5 106 Z " /><path fill="rgb(203,227,255)" stroke="rgb(203,227,255)" stroke-width="1" opacity="1" d="M 358.5 114 L 361.5 118 L 358.5 114 Z " /><path fill="rgb(203,227,255)" stroke="rgb(203,227,255)" stroke-width="1" opacity="1" d="M 363.5 120 L 364.5 122 L 363.5 120 Z " /><path fill="rgb(203,227,255)" stroke="rgb(203,227,255)" stroke-width="1" opacity="1" d="M 334.5 123 L 335.5 125 L 334.5 123 Z " /><path fill="rgb(203,227,255)" stroke="rgb(203,227,255)" stroke-width="1" opacity="1" d="M 342.5 131 L 344.5 134 L 342.5 131 Z " /><path fill="rgb(203,227,255)" stroke="rgb(203,227,255)" stroke-width="1" opacity="1" d="M 378.5 158 L 379 160.5 L 378 160.5 L 378.5 158 Z " /><path fill="rgb(203,227,255)" stroke="rgb(203,227,255)" stroke-width="1" opacity="1" d="M 355.5 161 L 356 163.5 L 355 163.5 L 355.5 161 Z " /><path fill="rgb(203,227,255)" stroke="rgb(203,227,255)" stroke-width="1" opacity="1" d="M 355.5 192 L 356 194.5 L 355 194.5 L 355.5 192 Z " /><path fill="rgb(203,227,255)" stroke="rgb(203,227,255)" stroke-width="1" opacity="1" d="M 344.5 222 L 343.5 224 L 344.5 222 Z " /><path fill="rgb(203,227,255)" stroke="rgb(203,227,255)" stroke-width="1" opacity="1" d="M 334.5 232 L 333.5 234 L 334.5 232 Z " /><path fill="rgb(203,227,255)" stroke="rgb(203,227,255)" stroke-width="1" opacity="1" d="M 364.5 234 L 363.5 236 L 364.5 234 Z " /><path fill="rgb(203,227,255)" stroke="rgb(203,227,255)" stroke-width="1" opacity="1" d="M 328.5 236 L 327.5 238 L 328.5 236 Z " /><path fill="rgb(203,227,255)" stroke="rgb(203,227,255)" stroke-width="1" opacity="1" d="M 361.5 238 L 359.5 241 L 361.5 238 Z " /><path fill="rgb(203,227,255)" stroke="rgb(203,227,255)" stroke-width="1" opacity="1" d="M 156.5 244 L 301 244.5 L 156.5 245 L 156.5 244 Z " /><path fill="rgb(203,227,255)" stroke="rgb(203,227,255)" stroke-width="1" opacity="1" d="M 352.5 247 L 350.5 250 L 352.5 247 Z " /><path fill="rgb(203,227,255)" stroke="rgb(203,227,255)" stroke-width="1" opacity="1" d="M 350.5 262 L 351.5 264 L 350.5 262 Z " /><path fill="rgb(203,227,255)" stroke="rgb(203,227,255)" stroke-width="1" opacity="1" d="M 156.5 267 L 301 267.5 L 156.5 268 L 156.5 267 Z " /><path fill="rgb(203,227,255)" stroke="rgb(203,227,255)" stroke-width="1" opacity="1" d="M 359.5 271 L 361.5 274 L 359.5 271 Z " /><path fill="rgb(203,227,255)" stroke="rgb(203,227,255)" stroke-width="1" opacity="1" d="M 363.5 276 L 364.5 278 L 363.5 276 Z " /><path fill="rgb(203,227,255)" stroke="rgb(203,227,255)" stroke-width="1" opacity="1" d="M 333.5 278 L 334.5 280 L 333.5 278 Z " /><path fill="rgb(203,227,255)" stroke="rgb(203,227,255)" stroke-width="1" opacity="1" d="M 343.5 288 L 344.5 290 L 343.5 288 Z " /><path fill="rgb(203,227,255)" stroke="rgb(203,227,255)" stroke-width="1" opacity="1" d="M 355.5 317 L 356 319.5 L 355 319.5 L 355.5 317 Z " /><path fill="rgb(203,227,255)" stroke="rgb(203,227,255)" stroke-width="1" opacity="1" d="M 355.5 348 L 356 350.5 L 355 350.5 L 355.5 348 Z " /><path fill="rgb(203,227,255)" stroke="rgb(203,227,255)" stroke-width="1" opacity="1" d="M 378.5 351 L 379 353.5 L 378 353.5 L 378.5 351 Z " /><path fill="rgb(203,227,255)" stroke="rgb(203,227,255)" stroke-width="1" opacity="1" d="M 343.5 379 L 342.5 381 L 343.5 379 Z " /><path fill="rgb(203,227,255)" stroke="rgb(203,227,255)" stroke-width="1" opacity="1" d="M 335.5 387 L 334.5 389 L 335.5 387 Z " /><path fill="rgb(203,227,255)" stroke="rgb(203,227,255)" stroke-width="1" opacity="1" d="M 364.5 390 L 363.5 392 L 364.5 390 Z " /><path fill="rgb(203,227,255)" stroke="rgb(203,227,255)" stroke-width="1" opacity="1" d="M 361.5 394 L 358.5 398 L 361.5 394 Z " /><path fill="rgb(203,227,255)" stroke="rgb(203,227,255)" stroke-width="1" opacity="1" d="M 352.5 403 L 350.5 406 L 352.5 403 Z " /><path fill="rgb(203,227,255)" stroke="rgb(203,227,255)" stroke-width="1" opacity="1" d="M 24.5 484 L 27.5 488 L 24.5 484 Z " /><path fill="rgb(203,227,255)" stroke="rgb(203,227,255)" stroke-width="1" opacity="1" d="M 487.5 484 L 484.5 488 L 487.5 484 Z " /><path fill="rgb(204,228,255)" stroke="rgb(204,228,255)" stroke-width="1" opacity="1" d="M 30.5 23 L 481.5 23 L 488 28.5 L 489 30.5 L 489 481.5 L 483.5 488 L 481.5 489 L 30.5 489 L 24 483.5 L 23 481.5 L 23 30.5 L 28.5 24 L 30.5 23 Z M 141 89 L 139 90 L 133 98 L 133 415 L 134 418 L 141 423 L 313 423 Q 336 419 351 406 Q 362 396 370 383 L 377 365 L 379 354 L 379 316 L 378 315 L 377 304 Q 372 286 362 274 L 344 257 Q 341 258 342 255 L 351 250 Q 362 240 370 227 L 377 209 L 378 198 L 379 197 L 379 159 L 377 148 Q 372 130 362 118 Q 345 95 313 89 L 141 89 Z " /><path fill="rgb(204,228,255)" stroke="rgb(204,228,255)" stroke-width="1" opacity="1" d="M 156 112 L 308.5 112 Q 330.4 116.1 342 130.5 Q 351.4 140.6 355 156.5 Q 353.3 162.8 356 164.5 L 356 191.5 L 355 192.5 L 354 203.5 L 348 217.5 L 335.5 232 Q 325.3 240.8 309.5 244 L 156 244 L 156 112 Z " /><path fill="rgb(204,228,255)" stroke="rgb(204,228,255)" stroke-width="1" opacity="1" d="M 156 268 L 309.5 268 Q 331.4 272.6 343 287.5 Q 351.7 297.3 355 312.5 Q 353.3 318.7 356 320.5 L 356 347.5 L 352 365.5 Q 346.5 378.5 336.5 387 Q 325.8 396.8 308.5 400 L 156 400 L 156 268 Z " /></svg>