<svg width="24" height="24" viewBox="0 0 512 512" version="1.1" xmlns="http://www.w3.org/2000/svg" desc="Created on https://convert2svg.com/" ><path fill="rgb(0,0,0)" stroke="rgb(0,0,0)" stroke-width="1" opacity="0" d="M 0 0 L 42 0.5 L 34 6.5 L 32 11.5 L 32 26.5 L 33 27.5 L 33 39.5 L 34 40.5 L 34 51.5 L 35 52.5 L 38 103.5 L 39 104.5 L 41 141.5 L 42 142.5 L 42 154.5 L 43 155.5 L 43 166.5 L 44 167.5 L 44 179.5 L 45 180.5 L 47 218.5 L 48 219.5 L 48 230.5 L 49 231.5 L 49 243.5 L 50 244.5 L 52 282.5 L 53 283.5 L 53 294.5 L 54 295.5 L 54 307.5 L 55 308.5 L 57 346.5 L 58 347.5 L 58 358.5 L 59 359.5 L 59 371.5 L 60 372.5 L 62 410.5 L 63 411.5 L 63 422.5 L 64 423.5 L 64 435.5 L 65 436.5 L 66 447.5 L 72.5 455 L 250 511.5 L 0 512 L 0 0 Z " /><path fill="rgb(0,0,0)" stroke="rgb(0,0,0)" stroke-width="1" opacity="0" d="M 470.5 0 L 511.5 0 L 512 0.5 L 512 512 L 262 511.5 L 437.5 456 L 445 449.5 L 447 444.5 L 449 411.5 L 450 410.5 L 453 359.5 L 454 358.5 L 454 347.5 L 455 346.5 L 458 295.5 L 459 294.5 L 459 283.5 L 460 282.5 L 463 231.5 L 464 230.5 L 464 219.5 L 465 218.5 L 468 167.5 L 469 166.5 L 469 155.5 L 470 154.5 L 470 142.5 L 471 141.5 L 472 116.5 L 473 115.5 L 473 104.5 L 474 103.5 L 477 52.5 L 478 51.5 L 478 40.5 L 479 39.5 L 479 27.5 L 480 26.5 L 480 11.5 Q 478.5 5 473.5 2 Q 469.7 1.7 470.5 0 Z " /><path fill="rgb(0,0,0)" stroke="rgb(0,0,0)" stroke-width="1" opacity="0" d="M 114 94 L 397.5 94 L 398 94.5 L 398 103.5 L 397 104.5 L 397 116.5 L 396 117.5 L 396 129.5 L 395 130.5 L 395 142.5 L 394 148 L 178.5 148 L 178 148.5 L 178 158.5 L 179 159.5 L 179 167.5 L 180 168.5 L 180 176.5 L 181 177.5 L 181 185.5 L 182 186.5 L 184 210 L 388.5 210 L 389 210.5 L 389 219.5 L 388 220.5 L 388 232.5 L 387 233.5 L 387 244.5 L 386 245.5 L 386 257.5 L 385 258.5 L 385 270.5 L 384 271.5 L 384 283.5 L 383 284.5 L 383 295.5 L 382 296.5 L 382 308.5 L 381 309.5 L 381 321.5 L 380 322.5 L 380 334.5 L 379 335.5 L 379 347.5 L 378 348.5 L 378 359.5 L 377 360.5 L 376 381 L 306.5 402 L 265.5 416 L 258.5 418 L 253.5 418 L 136 381 L 135 360.5 L 134 359.5 L 134 347.5 L 133 346.5 L 133 335.5 L 132 334.5 L 132 322.5 L 131 321.5 L 131 309.5 L 130 308.5 L 130 296.5 L 129 292 L 191 292 L 191 335.5 L 193.5 336 L 250.5 352 L 260.5 353 L 324 336 L 325 311.5 L 326 310.5 L 326 297.5 L 327 296.5 L 327 283.5 L 328 282.5 L 328 269.5 L 329 265 L 127.5 265 Q 126.3 264.8 127 258.5 L 126 257.5 L 126 245.5 L 125 244.5 L 125 232.5 L 124 231.5 L 124 220.5 L 123 219.5 L 123 207.5 L 122 206.5 L 122 194.5 L 121 193.5 L 121 181.5 L 120 180.5 L 120 168.5 L 119 167.5 L 119 156.5 L 118 155.5 L 118 143.5 L 117 142.5 L 117 130.5 L 116 129.5 L 116 117.5 L 115 116.5 L 114 94 Z " /><path fill="rgb(252,72,10)" stroke="rgb(252,72,10)" stroke-width="1" opacity="0.3411764705882353" d="M 40.5 1 L 39.5 3 L 35 6.5 L 33.5 10 L 33 8.5 L 38.5 2 L 40.5 1 Z " /><path fill="rgb(252,72,10)" stroke="rgb(252,72,10)" stroke-width="1" opacity="0.3411764705882353" d="M 471.5 1 L 478 6.5 L 479 9.5 L 478 9.5 L 473.5 3 L 471.5 1 Z " /><path fill="rgb(252,72,10)" stroke="rgb(252,72,10)" stroke-width="1" opacity="0.3411764705882353" d="M 32.5 19 L 33 26.5 L 32 26.5 L 32.5 19 Z " /><path fill="rgb(252,72,10)" stroke="rgb(252,72,10)" stroke-width="1" opacity="0.3411764705882353" d="M 479.5 19 L 480 26.5 L 479 26.5 L 479.5 19 Z " /><path fill="rgb(252,72,10)" stroke="rgb(252,72,10)" stroke-width="1" opacity="0.3411764705882353" d="M 33.5 32 L 34 39.5 L 33 39.5 L 33.5 32 Z " /><path fill="rgb(252,72,10)" stroke="rgb(252,72,10)" stroke-width="1" opacity="0.3411764705882353" d="M 478.5 32 L 479 39.5 L 478 39.5 L 478.5 32 Z " /><path fill="rgb(252,72,10)" stroke="rgb(252,72,10)" stroke-width="1" opacity="0.3411764705882353" d="M 34.5 45 L 35 51.5 L 34 51.5 L 34.5 45 Z " /><path fill="rgb(252,72,10)" stroke="rgb(252,72,10)" stroke-width="1" opacity="0.3411764705882353" d="M 477.5 45 L 478 51.5 L 477 51.5 L 477.5 45 Z " /><path fill="rgb(252,72,10)" stroke="rgb(252,72,10)" stroke-width="1" opacity="0.3411764705882353" d="M 35.5 58 L 36 64.5 L 35 64.5 L 35.5 58 Z " /><path fill="rgb(252,72,10)" stroke="rgb(252,72,10)" stroke-width="1" opacity="0.3411764705882353" d="M 476.5 58 L 477 64.5 L 476 64.5 L 476.5 58 Z " /><path fill="rgb(252,72,10)" stroke="rgb(252,72,10)" stroke-width="1" opacity="0.3411764705882353" d="M 36.5 70 L 37 77.5 L 36 77.5 L 36.5 70 Z " /><path fill="rgb(252,72,10)" stroke="rgb(252,72,10)" stroke-width="1" opacity="0.3411764705882353" d="M 475.5 70 L 476 77.5 L 475 77.5 L 475.5 70 Z " /><path fill="rgb(252,72,10)" stroke="rgb(252,72,10)" stroke-width="1" opacity="0.3411764705882353" d="M 37.5 83 L 38 90.5 L 37 90.5 L 37.5 83 Z " /><path fill="rgb(252,72,10)" stroke="rgb(252,72,10)" stroke-width="1" opacity="0.3411764705882353" d="M 474.5 83 L 475 90.5 L 474 90.5 L 474.5 83 Z " /><path fill="rgb(252,72,10)" stroke="rgb(252,72,10)" stroke-width="1" opacity="0.3411764705882353" d="M 113.5 94 L 114 98.5 L 113 98.5 L 113.5 94 Z " /><path fill="rgb(252,72,10)" stroke="rgb(252,72,10)" stroke-width="1" opacity="0.3411764705882353" d="M 398.5 94 L 399 98.5 L 398 98.5 L 398.5 94 Z " /><path fill="rgb(252,72,10)" stroke="rgb(252,72,10)" stroke-width="1" opacity="0.3411764705882353" d="M 38.5 96 L 39 103.5 L 38 103.5 L 38.5 96 Z " /><path fill="rgb(252,72,10)" stroke="rgb(252,72,10)" stroke-width="1" opacity="0.3411764705882353" d="M 473.5 96 L 474 103.5 L 473 103.5 L 473.5 96 Z " /><path fill="rgb(252,72,10)" stroke="rgb(252,72,10)" stroke-width="1" opacity="0.3411764705882353" d="M 114.5 104 L 115 111.5 L 114 111.5 L 114.5 104 Z " /><path fill="rgb(252,72,10)" stroke="rgb(252,72,10)" stroke-width="1" opacity="0.3411764705882353" d="M 397.5 104 L 398 111.5 L 397 111.5 L 397.5 104 Z " /><path fill="rgb(252,72,10)" stroke="rgb(252,72,10)" stroke-width="1" opacity="0.3411764705882353" d="M 39.5 109 L 40 115.5 L 39 115.5 L 39.5 109 Z " /><path fill="rgb(252,72,10)" stroke="rgb(252,72,10)" stroke-width="1" opacity="0.3411764705882353" d="M 472.5 109 L 473 115.5 L 472 115.5 L 472.5 109 Z " /><path fill="rgb(252,72,10)" stroke="rgb(252,72,10)" stroke-width="1" opacity="0.3411764705882353" d="M 115.5 117 L 116 124.5 L 115 124.5 L 115.5 117 Z " /><path fill="rgb(252,72,10)" stroke="rgb(252,72,10)" stroke-width="1" opacity="0.3411764705882353" d="M 396.5 117 L 397 124.5 L 396 124.5 L 396.5 117 Z " /><path fill="rgb(252,72,10)" stroke="rgb(252,72,10)" stroke-width="1" opacity="0.3411764705882353" d="M 40.5 122 L 41 128.5 L 40 128.5 L 40.5 122 Z " /><path fill="rgb(252,72,10)" stroke="rgb(252,72,10)" stroke-width="1" opacity="0.3411764705882353" d="M 471.5 122 L 472 128.5 L 471 128.5 L 471.5 122 Z " /><path fill="rgb(252,72,10)" stroke="rgb(252,72,10)" stroke-width="1" opacity="0.3411764705882353" d="M 116.5 130 L 117 136.5 L 116 136.5 L 116.5 130 Z " /><path fill="rgb(252,72,10)" stroke="rgb(252,72,10)" stroke-width="1" opacity="0.3411764705882353" d="M 395.5 130 L 396 136.5 L 395 136.5 L 395.5 130 Z " /><path fill="rgb(252,72,10)" stroke="rgb(252,72,10)" stroke-width="1" opacity="0.3411764705882353" d="M 41.5 134 L 42 141.5 L 41 141.5 L 41.5 134 Z " /><path fill="rgb(252,72,10)" stroke="rgb(252,72,10)" stroke-width="1" opacity="0.3411764705882353" d="M 470.5 134 L 471 141.5 L 470 141.5 L 470.5 134 Z " /><path fill="rgb(252,72,10)" stroke="rgb(252,72,10)" stroke-width="1" opacity="0.3411764705882353" d="M 117.5 143 L 118 149.5 L 117 149.5 L 117.5 143 Z " /><path fill="rgb(252,72,10)" stroke="rgb(252,72,10)" stroke-width="1" opacity="0.3411764705882353" d="M 394.5 143 L 395 149 L 178 148.5 L 394 148 L 394.5 143 Z " /><path fill="rgb(252,72,10)" stroke="rgb(252,72,10)" stroke-width="1" opacity="0.3411764705882353" d="M 42.5 147 L 43 154.5 L 42 154.5 L 42.5 147 Z " /><path fill="rgb(252,72,10)" stroke="rgb(252,72,10)" stroke-width="1" opacity="0.3411764705882353" d="M 469.5 147 L 470 154.5 L 469 154.5 L 469.5 147 Z " /><path fill="rgb(252,72,10)" stroke="rgb(252,72,10)" stroke-width="1" opacity="0.3411764705882353" d="M 178.5 153 L 179 158.5 L 178 158.5 L 178.5 153 Z " /><path fill="rgb(252,72,10)" stroke="rgb(252,72,10)" stroke-width="1" opacity="0.3411764705882353" d="M 118.5 156 L 119 162.5 L 118 162.5 L 118.5 156 Z " /><path fill="rgb(252,72,10)" stroke="rgb(252,72,10)" stroke-width="1" opacity="0.3411764705882353" d="M 43.5 160 L 44 166.5 L 43 166.5 L 43.5 160 Z " /><path fill="rgb(252,72,10)" stroke="rgb(252,72,10)" stroke-width="1" opacity="0.3411764705882353" d="M 468.5 160 L 469 166.5 L 468 166.5 L 468.5 160 Z " /><path fill="rgb(252,72,10)" stroke="rgb(252,72,10)" stroke-width="1" opacity="0.3411764705882353" d="M 179.5 162 L 180 167.5 L 179 167.5 L 179.5 162 Z " /><path fill="rgb(252,72,10)" stroke="rgb(252,72,10)" stroke-width="1" opacity="0.3411764705882353" d="M 119.5 168 L 120 175.5 L 119 175.5 L 119.5 168 Z " /><path fill="rgb(252,72,10)" stroke="rgb(252,72,10)" stroke-width="1" opacity="0.3411764705882353" d="M 180.5 171 L 181 176.5 L 180 176.5 L 180.5 171 Z " /><path fill="rgb(252,72,10)" stroke="rgb(252,72,10)" stroke-width="1" opacity="0.3411764705882353" d="M 44.5 173 L 45 179.5 L 44 179.5 L 44.5 173 Z " /><path fill="rgb(252,72,10)" stroke="rgb(252,72,10)" stroke-width="1" opacity="0.3411764705882353" d="M 467.5 173 L 468 179.5 L 467 179.5 L 467.5 173 Z " /><path fill="rgb(252,72,10)" stroke="rgb(252,72,10)" stroke-width="1" opacity="0.3411764705882353" d="M 120.5 181 L 121 188.5 L 120 188.5 L 120.5 181 Z " /><path fill="rgb(252,72,10)" stroke="rgb(252,72,10)" stroke-width="1" opacity="0.3411764705882353" d="M 181.5 181 L 182 185.5 L 181 185.5 L 181.5 181 Z " /><path fill="rgb(252,72,10)" stroke="rgb(252,72,10)" stroke-width="1" opacity="0.3411764705882353" d="M 45.5 186 L 46 192.5 L 45 192.5 L 45.5 186 Z " /><path fill="rgb(252,72,10)" stroke="rgb(252,72,10)" stroke-width="1" opacity="0.3411764705882353" d="M 466.5 186 L 467 192.5 L 466 192.5 L 466.5 186 Z " /><path fill="rgb(252,72,10)" stroke="rgb(252,72,10)" stroke-width="1" opacity="0.3411764705882353" d="M 182.5 190 L 183 194.5 L 182 194.5 L 182.5 190 Z " /><path fill="rgb(252,72,10)" stroke="rgb(252,72,10)" stroke-width="1" opacity="0.3411764705882353" d="M 121.5 194 L 122 201.5 L 121 201.5 L 121.5 194 Z " /><path fill="rgb(252,72,10)" stroke="rgb(252,72,10)" stroke-width="1" opacity="0.3411764705882353" d="M 46.5 198 L 47 205.5 L 46 205.5 L 46.5 198 Z " /><path fill="rgb(252,72,10)" stroke="rgb(252,72,10)" stroke-width="1" opacity="0.3411764705882353" d="M 465.5 198 L 466 205.5 L 465 205.5 L 465.5 198 Z " /><path fill="rgb(252,72,10)" stroke="rgb(252,72,10)" stroke-width="1" opacity="0.3411764705882353" d="M 183.5 199 L 184 203.5 L 183 203.5 L 183.5 199 Z " /><path fill="rgb(252,72,10)" stroke="rgb(252,72,10)" stroke-width="1" opacity="0.3411764705882353" d="M 122.5 207 L 123 213.5 L 122 213.5 L 122.5 207 Z " /><path fill="rgb(252,72,10)" stroke="rgb(252,72,10)" stroke-width="1" opacity="0.3411764705882353" d="M 184.5 208 L 185.5 209 L 390 209 L 389.5 214 L 389 210 L 184.5 210 L 184.5 208 Z " /><path fill="rgb(252,72,10)" stroke="rgb(252,72,10)" stroke-width="1" opacity="0.3411764705882353" d="M 47.5 211 L 48 218.5 L 47 218.5 L 47.5 211 Z " /><path fill="rgb(252,72,10)" stroke="rgb(252,72,10)" stroke-width="1" opacity="0.3411764705882353" d="M 464.5 211 L 465 218.5 L 464 218.5 L 464.5 211 Z " /><path fill="rgb(252,72,10)" stroke="rgb(252,72,10)" stroke-width="1" opacity="0.3411764705882353" d="M 123.5 220 L 124 226.5 L 123 226.5 L 123.5 220 Z " /><path fill="rgb(252,72,10)" stroke="rgb(252,72,10)" stroke-width="1" opacity="0.3411764705882353" d="M 388.5 220 L 389 226.5 L 388 226.5 L 388.5 220 Z " /><path fill="rgb(252,72,10)" stroke="rgb(252,72,10)" stroke-width="1" opacity="0.3411764705882353" d="M 48.5 224 L 49 230.5 L 48 230.5 L 48.5 224 Z " /><path fill="rgb(252,72,10)" stroke="rgb(252,72,10)" stroke-width="1" opacity="0.3411764705882353" d="M 463.5 224 L 464 230.5 L 463 230.5 L 463.5 224 Z " /><path fill="rgb(252,72,10)" stroke="rgb(252,72,10)" stroke-width="1" opacity="0.3411764705882353" d="M 124.5 232 L 125 239.5 L 124 239.5 L 124.5 232 Z " /><path fill="rgb(252,72,10)" stroke="rgb(252,72,10)" stroke-width="1" opacity="0.3411764705882353" d="M 387.5 233 L 388 239.5 L 387 239.5 L 387.5 233 Z " /><path fill="rgb(252,72,10)" stroke="rgb(252,72,10)" stroke-width="1" opacity="0.3411764705882353" d="M 49.5 237 L 50 243.5 L 49 243.5 L 49.5 237 Z " /><path fill="rgb(252,72,10)" stroke="rgb(252,72,10)" stroke-width="1" opacity="0.3411764705882353" d="M 462.5 237 L 463 243.5 L 462 243.5 L 462.5 237 Z " /><path fill="rgb(252,72,10)" stroke="rgb(252,72,10)" stroke-width="1" opacity="0.3411764705882353" d="M 125.5 245 L 126 252.5 L 125 252.5 L 125.5 245 Z " /><path fill="rgb(252,72,10)" stroke="rgb(252,72,10)" stroke-width="1" opacity="0.3411764705882353" d="M 386.5 245 L 387 252.5 L 386 252.5 L 386.5 245 Z " /><path fill="rgb(252,72,10)" stroke="rgb(252,72,10)" stroke-width="1" opacity="0.3411764705882353" d="M 50.5 250 L 51 256.5 L 50 256.5 L 50.5 250 Z " /><path fill="rgb(252,72,10)" stroke="rgb(252,72,10)" stroke-width="1" opacity="0.3411764705882353" d="M 461.5 250 L 462 256.5 L 461 256.5 L 461.5 250 Z " /><path fill="rgb(252,72,10)" stroke="rgb(252,72,10)" stroke-width="1" opacity="0.3411764705882353" d="M 126.5 258 L 127 264.5 L 126 264.5 L 126.5 258 Z " /><path fill="rgb(252,72,10)" stroke="rgb(252,72,10)" stroke-width="1" opacity="0.3411764705882353" d="M 385.5 258 L 386 265.5 L 385 265.5 L 385.5 258 Z " /><path fill="rgb(252,72,10)" stroke="rgb(252,72,10)" stroke-width="1" opacity="0.3411764705882353" d="M 51.5 262 L 52 269.5 L 51 269.5 L 51.5 262 Z " /><path fill="rgb(252,72,10)" stroke="rgb(252,72,10)" stroke-width="1" opacity="0.3411764705882353" d="M 460.5 262 L 461 269.5 L 460 269.5 L 460.5 262 Z " /><path fill="rgb(252,72,10)" stroke="rgb(252,72,10)" stroke-width="1" opacity="0.3411764705882353" d="M 328.5 265 L 329 268.5 L 328 268.5 L 328.5 265 Z " /><path fill="rgb(252,72,10)" stroke="rgb(252,72,10)" stroke-width="1" opacity="0.3411764705882353" d="M 384.5 271 L 385 277.5 L 384 277.5 L 384.5 271 Z " /><path fill="rgb(252,72,10)" stroke="rgb(252,72,10)" stroke-width="1" opacity="0.3411764705882353" d="M 52.5 275 L 53 282.5 L 52 282.5 L 52.5 275 Z " /><path fill="rgb(252,72,10)" stroke="rgb(252,72,10)" stroke-width="1" opacity="0.3411764705882353" d="M 327.5 275 L 328 282.5 L 327 282.5 L 327.5 275 Z " /><path fill="rgb(252,72,10)" stroke="rgb(252,72,10)" stroke-width="1" opacity="0.3411764705882353" d="M 459.5 275 L 460 282.5 L 459 282.5 L 459.5 275 Z " /><path fill="rgb(252,72,10)" stroke="rgb(252,72,10)" stroke-width="1" opacity="0.3411764705882353" d="M 383.5 284 L 384 290.5 L 383 290.5 L 383.5 284 Z " /><path fill="rgb(252,72,10)" stroke="rgb(252,72,10)" stroke-width="1" opacity="0.3411764705882353" d="M 53.5 288 L 54 294.5 L 53 294.5 L 53.5 288 Z " /><path fill="rgb(252,72,10)" stroke="rgb(252,72,10)" stroke-width="1" opacity="0.3411764705882353" d="M 458.5 288 L 459 294.5 L 458 294.5 L 458.5 288 Z " /><path fill="rgb(252,72,10)" stroke="rgb(252,72,10)" stroke-width="1" opacity="0.3411764705882353" d="M 326.5 289 L 327 296.5 L 326 296.5 L 326.5 289 Z " /><path fill="rgb(252,72,10)" stroke="rgb(252,72,10)" stroke-width="1" opacity="0.3411764705882353" d="M 129.5 291 L 192 291 L 192 334.5 L 192.5 336 L 191 335.5 L 191 292 L 129.5 292 L 129.5 291 Z " /><path fill="rgb(252,72,10)" stroke="rgb(252,72,10)" stroke-width="1" opacity="0.3411764705882353" d="M 129.5 296 L 130 303.5 L 129 303.5 L 129.5 296 Z " /><path fill="rgb(252,72,10)" stroke="rgb(252,72,10)" stroke-width="1" opacity="0.3411764705882353" d="M 382.5 296 L 383 303.5 L 382 303.5 L 382.5 296 Z " /><path fill="rgb(252,72,10)" stroke="rgb(252,72,10)" stroke-width="1" opacity="0.3411764705882353" d="M 54.5 301 L 55 307.5 L 54 307.5 L 54.5 301 Z " /><path fill="rgb(252,72,10)" stroke="rgb(252,72,10)" stroke-width="1" opacity="0.3411764705882353" d="M 457.5 301 L 458 307.5 L 457 307.5 L 457.5 301 Z " /><path fill="rgb(252,72,10)" stroke="rgb(252,72,10)" stroke-width="1" opacity="0.3411764705882353" d="M 325.5 303 L 326 310.5 L 325 310.5 L 325.5 303 Z " /><path fill="rgb(252,72,10)" stroke="rgb(252,72,10)" stroke-width="1" opacity="0.3411764705882353" d="M 130.5 309 L 131 316.5 L 130 316.5 L 130.5 309 Z " /><path fill="rgb(252,72,10)" stroke="rgb(252,72,10)" stroke-width="1" opacity="0.3411764705882353" d="M 381.5 309 L 382 316.5 L 381 316.5 L 381.5 309 Z " /><path fill="rgb(252,72,10)" stroke="rgb(252,72,10)" stroke-width="1" opacity="0.3411764705882353" d="M 55.5 314 L 56 320.5 L 55 320.5 L 55.5 314 Z " /><path fill="rgb(252,72,10)" stroke="rgb(252,72,10)" stroke-width="1" opacity="0.3411764705882353" d="M 456.5 314 L 457 320.5 L 456 320.5 L 456.5 314 Z " /><path fill="rgb(252,72,10)" stroke="rgb(252,72,10)" stroke-width="1" opacity="0.3411764705882353" d="M 324.5 316 L 325 324.5 L 324 324.5 L 324.5 316 Z " /><path fill="rgb(252,72,10)" stroke="rgb(252,72,10)" stroke-width="1" opacity="0.3411764705882353" d="M 131.5 322 L 132 328.5 L 131 328.5 L 131.5 322 Z " /><path fill="rgb(252,72,10)" stroke="rgb(252,72,10)" stroke-width="1" opacity="0.3411764705882353" d="M 380.5 322 L 381 329.5 L 380 329.5 L 380.5 322 Z " /><path fill="rgb(252,72,10)" stroke="rgb(252,72,10)" stroke-width="1" opacity="0.3411764705882353" d="M 56.5 326 L 57 333.5 L 56 333.5 L 56.5 326 Z " /><path fill="rgb(252,72,10)" stroke="rgb(252,72,10)" stroke-width="1" opacity="0.3411764705882353" d="M 455.5 326 L 456 333.5 L 455 333.5 L 455.5 326 Z " /><path fill="rgb(252,72,10)" stroke="rgb(252,72,10)" stroke-width="1" opacity="0.3411764705882353" d="M 323.5 330 L 324 336 L 322 335.5 L 323.5 330 Z " /><path fill="rgb(252,72,10)" stroke="rgb(252,72,10)" stroke-width="1" opacity="0.3411764705882353" d="M 132.5 335 L 133 341.5 L 132 341.5 L 132.5 335 Z " /><path fill="rgb(252,72,10)" stroke="rgb(252,72,10)" stroke-width="1" opacity="0.3411764705882353" d="M 379.5 335 L 380 341.5 L 379 341.5 L 379.5 335 Z " /><path fill="rgb(252,72,10)" stroke="rgb(252,72,10)" stroke-width="1" opacity="0.3411764705882353" d="M 194.5 336 L 197 336.5 L 194.5 337 L 194.5 336 Z " /><path fill="rgb(252,72,10)" stroke="rgb(252,72,10)" stroke-width="1" opacity="0.3411764705882353" d="M 318.5 336 L 321 336.5 L 318.5 337 L 318.5 336 Z " /><path fill="rgb(252,72,10)" stroke="rgb(252,72,10)" stroke-width="1" opacity="0.3411764705882353" d="M 198.5 337 L 201 337.5 L 198.5 338 L 198.5 337 Z " /><path fill="rgb(252,72,10)" stroke="rgb(252,72,10)" stroke-width="1" opacity="0.3411764705882353" d="M 314.5 337 L 317 337.5 L 314.5 338 L 314.5 337 Z " /><path fill="rgb(252,72,10)" stroke="rgb(252,72,10)" stroke-width="1" opacity="0.3411764705882353" d="M 57.5 339 L 58 346.5 L 57 346.5 L 57.5 339 Z " /><path fill="rgb(252,72,10)" stroke="rgb(252,72,10)" stroke-width="1" opacity="0.3411764705882353" d="M 454.5 339 L 455 346.5 L 454 346.5 L 454.5 339 Z " /><path fill="rgb(252,72,10)" stroke="rgb(252,72,10)" stroke-width="1" opacity="0.3411764705882353" d="M 209.5 340 L 212 340.5 L 209.5 341 L 209.5 340 Z " /><path fill="rgb(252,72,10)" stroke="rgb(252,72,10)" stroke-width="1" opacity="0.3411764705882353" d="M 303.5 340 L 306 340.5 L 303.5 341 L 303.5 340 Z " /><path fill="rgb(252,72,10)" stroke="rgb(252,72,10)" stroke-width="1" opacity="0.3411764705882353" d="M 213.5 341 L 216 341.5 L 213.5 342 L 213.5 341 Z " /><path fill="rgb(252,72,10)" stroke="rgb(252,72,10)" stroke-width="1" opacity="0.3411764705882353" d="M 292.5 343 L 295 343.5 L 292.5 344 L 292.5 343 Z " /><path fill="rgb(252,72,10)" stroke="rgb(252,72,10)" stroke-width="1" opacity="0.3411764705882353" d="M 224.5 344 L 227 344.5 L 224.5 345 L 224.5 344 Z " /><path fill="rgb(252,72,10)" stroke="rgb(252,72,10)" stroke-width="1" opacity="0.3411764705882353" d="M 281.5 346 L 284 346.5 L 281.5 347 L 281.5 346 Z " /><path fill="rgb(252,72,10)" stroke="rgb(252,72,10)" stroke-width="1" opacity="0.3411764705882353" d="M 133.5 347 L 134 354.5 L 133 354.5 L 133.5 347 Z " /><path fill="rgb(252,72,10)" stroke="rgb(252,72,10)" stroke-width="1" opacity="0.3411764705882353" d="M 235.5 347 L 238 347.5 L 235.5 348 L 235.5 347 Z " /><path fill="rgb(252,72,10)" stroke="rgb(252,72,10)" stroke-width="1" opacity="0.3411764705882353" d="M 277.5 347 L 280 347.5 L 277.5 348 L 277.5 347 Z " /><path fill="rgb(252,72,10)" stroke="rgb(252,72,10)" stroke-width="1" opacity="0.3411764705882353" d="M 239.5 348 L 242 348.5 L 239.5 349 L 239.5 348 Z " /><path fill="rgb(252,72,10)" stroke="rgb(252,72,10)" stroke-width="1" opacity="0.3411764705882353" d="M 378.5 348 L 379 354.5 L 378 354.5 L 378.5 348 Z " /><path fill="rgb(252,72,10)" stroke="rgb(252,72,10)" stroke-width="1" opacity="0.3411764705882353" d="M 266.5 350 L 269 350.5 L 266.5 351 L 266.5 350 Z " /><path fill="rgb(252,72,10)" stroke="rgb(252,72,10)" stroke-width="1" opacity="0.3411764705882353" d="M 250.5 351 L 253 351.5 L 250.5 352 L 250.5 351 Z " /><path fill="rgb(252,72,10)" stroke="rgb(252,72,10)" stroke-width="1" opacity="0.3411764705882353" d="M 58.5 352 L 59 358.5 L 58 358.5 L 58.5 352 Z " /><path fill="rgb(252,72,10)" stroke="rgb(252,72,10)" stroke-width="1" opacity="0.3411764705882353" d="M 453.5 352 L 454 358.5 L 453 358.5 L 453.5 352 Z " /><path fill="rgb(252,72,10)" stroke="rgb(252,72,10)" stroke-width="1" opacity="0.3411764705882353" d="M 134.5 360 L 135 367.5 L 134 367.5 L 134.5 360 Z " /><path fill="rgb(252,72,10)" stroke="rgb(252,72,10)" stroke-width="1" opacity="0.3411764705882353" d="M 377.5 360 L 378 367.5 L 377 367.5 L 377.5 360 Z " /><path fill="rgb(252,72,10)" stroke="rgb(252,72,10)" stroke-width="1" opacity="0.3411764705882353" d="M 59.5 365 L 60 371.5 L 59 371.5 L 59.5 365 Z " /><path fill="rgb(252,72,10)" stroke="rgb(252,72,10)" stroke-width="1" opacity="0.3411764705882353" d="M 452.5 365 L 453 371.5 L 452 371.5 L 452.5 365 Z " /><path fill="rgb(252,72,10)" stroke="rgb(252,72,10)" stroke-width="1" opacity="0.3411764705882353" d="M 135.5 373 L 136 380.5 L 135 380.5 L 135.5 373 Z " /><path fill="rgb(252,72,10)" stroke="rgb(252,72,10)" stroke-width="1" opacity="0.3411764705882353" d="M 376.5 373 L 377 380.5 L 376 380.5 L 376.5 373 Z " /><path fill="rgb(252,72,10)" stroke="rgb(252,72,10)" stroke-width="1" opacity="0.3411764705882353" d="M 60.5 378 L 61 384.5 L 60 384.5 L 60.5 378 Z " /><path fill="rgb(252,72,10)" stroke="rgb(252,72,10)" stroke-width="1" opacity="0.3411764705882353" d="M 451.5 378 L 452 384.5 L 451 384.5 L 451.5 378 Z " /><path fill="rgb(252,72,10)" stroke="rgb(252,72,10)" stroke-width="1" opacity="0.3411764705882353" d="M 143.5 383 L 146 383.5 L 143.5 384 L 143.5 383 Z " /><path fill="rgb(252,72,10)" stroke="rgb(252,72,10)" stroke-width="1" opacity="0.3411764705882353" d="M 366.5 383 L 369 383.5 L 366.5 384 L 366.5 383 Z " /><path fill="rgb(252,72,10)" stroke="rgb(252,72,10)" stroke-width="1" opacity="0.3411764705882353" d="M 162.5 389 L 165 389.5 L 162.5 390 L 162.5 389 Z " /><path fill="rgb(252,72,10)" stroke="rgb(252,72,10)" stroke-width="1" opacity="0.3411764705882353" d="M 347.5 389 L 350 389.5 L 347.5 390 L 347.5 389 Z " /><path fill="rgb(252,72,10)" stroke="rgb(252,72,10)" stroke-width="1" opacity="0.3411764705882353" d="M 61.5 390 L 62 397.5 L 61 397.5 L 61.5 390 Z " /><path fill="rgb(252,72,10)" stroke="rgb(252,72,10)" stroke-width="1" opacity="0.3411764705882353" d="M 450.5 390 L 451 397.5 L 450 397.5 L 450.5 390 Z " /><path fill="rgb(252,72,10)" stroke="rgb(252,72,10)" stroke-width="1" opacity="0.3411764705882353" d="M 184.5 396 L 187 396.5 L 184.5 397 L 184.5 396 Z " /><path fill="rgb(252,72,10)" stroke="rgb(252,72,10)" stroke-width="1" opacity="0.3411764705882353" d="M 325.5 396 L 328 396.5 L 325.5 397 L 325.5 396 Z " /><path fill="rgb(252,72,10)" stroke="rgb(252,72,10)" stroke-width="1" opacity="0.3411764705882353" d="M 203.5 402 L 209 403.5 L 206.5 404 L 203.5 403 L 203.5 402 Z " /><path fill="rgb(252,72,10)" stroke="rgb(252,72,10)" stroke-width="1" opacity="0.3411764705882353" d="M 306.5 402 L 309 402.5 L 303.5 404 L 303.5 403 L 306.5 402 Z " /><path fill="rgb(252,72,10)" stroke="rgb(252,72,10)" stroke-width="1" opacity="0.3411764705882353" d="M 62.5 403 L 63 410.5 L 62 410.5 L 62.5 403 Z " /><path fill="rgb(252,72,10)" stroke="rgb(252,72,10)" stroke-width="1" opacity="0.3411764705882353" d="M 449.5 403 L 450 410.5 L 449 410.5 L 449.5 403 Z " /><path fill="rgb(252,72,10)" stroke="rgb(252,72,10)" stroke-width="1" opacity="0.3411764705882353" d="M 225.5 409 L 228 409.5 L 225.5 410 L 225.5 409 Z " /><path fill="rgb(252,72,10)" stroke="rgb(252,72,10)" stroke-width="1" opacity="0.3411764705882353" d="M 284.5 409 L 287 409.5 L 284.5 410 L 284.5 409 Z " /><path fill="rgb(252,72,10)" stroke="rgb(252,72,10)" stroke-width="1" opacity="0.3411764705882353" d="M 63.5 416 L 64 422.5 L 63 422.5 L 63.5 416 Z " /><path fill="rgb(252,72,10)" stroke="rgb(252,72,10)" stroke-width="1" opacity="0.3411764705882353" d="M 247.5 416 L 250 416.5 L 247.5 417 L 247.5 416 Z " /><path fill="rgb(252,72,10)" stroke="rgb(252,72,10)" stroke-width="1" opacity="0.3411764705882353" d="M 262.5 416 L 265 416.5 L 262.5 417 L 262.5 416 Z " /><path fill="rgb(252,72,10)" stroke="rgb(252,72,10)" stroke-width="1" opacity="0.3411764705882353" d="M 448.5 416 L 449 422.5 L 448 422.5 L 448.5 416 Z " /><path fill="rgb(252,72,10)" stroke="rgb(252,72,10)" stroke-width="1" opacity="0.3411764705882353" d="M 254.5 418 L 258 418.5 L 254.5 419 L 254.5 418 Z " /><path fill="rgb(252,72,10)" stroke="rgb(252,72,10)" stroke-width="1" opacity="0.3411764705882353" d="M 64.5 429 L 65 435.5 L 64 435.5 L 64.5 429 Z " /><path fill="rgb(252,72,10)" stroke="rgb(252,72,10)" stroke-width="1" opacity="0.3411764705882353" d="M 447.5 429 L 448 435.5 L 447 435.5 L 447.5 429 Z " /><path fill="rgb(252,72,10)" stroke="rgb(252,72,10)" stroke-width="1" opacity="0.3411764705882353" d="M 65.5 442 L 66 444.5 L 65 444.5 L 65.5 442 Z " /><path fill="rgb(252,72,10)" stroke="rgb(252,72,10)" stroke-width="1" opacity="0.3411764705882353" d="M 446.5 442 L 447 444.5 L 446 444.5 L 446.5 442 Z " /><path fill="rgb(252,72,10)" stroke="rgb(252,72,10)" stroke-width="1" opacity="0.3411764705882353" d="M 66.5 446 L 72.5 454 L 76 455.5 L 74.5 456 L 67 449.5 L 66.5 446 Z " /><path fill="rgb(252,72,10)" stroke="rgb(252,72,10)" stroke-width="1" opacity="0.3411764705882353" d="M 445.5 446 L 446 447.5 L 439.5 455 L 436.5 456 L 436.5 455 L 444 449.5 L 445.5 446 Z " /><path fill="rgb(252,72,10)" stroke="rgb(252,72,10)" stroke-width="1" opacity="0.3411764705882353" d="M 92.5 461 L 95 461.5 L 92.5 462 L 92.5 461 Z " /><path fill="rgb(252,72,10)" stroke="rgb(252,72,10)" stroke-width="1" opacity="0.3411764705882353" d="M 417.5 461 L 420 461.5 L 417.5 462 L 417.5 461 Z " /><path fill="rgb(252,72,10)" stroke="rgb(252,72,10)" stroke-width="1" opacity="0.3411764705882353" d="M 111.5 467 L 114 467.5 L 111.5 468 L 111.5 467 Z " /><path fill="rgb(252,72,10)" stroke="rgb(252,72,10)" stroke-width="1" opacity="0.3411764705882353" d="M 398.5 467 L 401 467.5 L 398.5 468 L 398.5 467 Z " /><path fill="rgb(252,72,10)" stroke="rgb(252,72,10)" stroke-width="1" opacity="0.3411764705882353" d="M 133.5 474 L 136 474.5 L 133.5 475 L 133.5 474 Z " /><path fill="rgb(252,72,10)" stroke="rgb(252,72,10)" stroke-width="1" opacity="0.3411764705882353" d="M 376.5 474 L 379 474.5 L 376.5 475 L 376.5 474 Z " /><path fill="rgb(252,72,10)" stroke="rgb(252,72,10)" stroke-width="1" opacity="0.3411764705882353" d="M 152.5 480 L 155 480.5 L 152.5 481 L 152.5 480 Z " /><path fill="rgb(252,72,10)" stroke="rgb(252,72,10)" stroke-width="1" opacity="0.3411764705882353" d="M 357.5 480 L 360 480.5 L 357.5 481 L 357.5 480 Z " /><path fill="rgb(252,72,10)" stroke="rgb(252,72,10)" stroke-width="1" opacity="0.3411764705882353" d="M 174.5 487 L 177 487.5 L 174.5 488 L 174.5 487 Z " /><path fill="rgb(252,72,10)" stroke="rgb(252,72,10)" stroke-width="1" opacity="0.3411764705882353" d="M 335.5 487 L 338 487.5 L 335.5 488 L 335.5 487 Z " /><path fill="rgb(252,72,10)" stroke="rgb(252,72,10)" stroke-width="1" opacity="0.3411764705882353" d="M 193.5 493 L 196 493.5 L 193.5 494 L 193.5 493 Z " /><path fill="rgb(252,72,10)" stroke="rgb(252,72,10)" stroke-width="1" opacity="0.3411764705882353" d="M 316.5 493 L 319 493.5 L 316.5 494 L 316.5 493 Z " /><path fill="rgb(252,72,10)" stroke="rgb(252,72,10)" stroke-width="1" opacity="0.3411764705882353" d="M 215.5 500 L 218 500.5 L 215.5 501 L 215.5 500 Z " /><path fill="rgb(252,72,10)" stroke="rgb(252,72,10)" stroke-width="1" opacity="0.3411764705882353" d="M 294.5 500 L 297 500.5 L 294.5 501 L 294.5 500 Z " /><path fill="rgb(252,72,10)" stroke="rgb(252,72,10)" stroke-width="1" opacity="0.3411764705882353" d="M 234.5 506 L 237 506.5 L 234.5 507 L 234.5 506 Z " /><path fill="rgb(252,72,10)" stroke="rgb(252,72,10)" stroke-width="1" opacity="0.3411764705882353" d="M 275.5 506 L 278 506.5 L 275.5 507 L 275.5 506 Z " /><path fill="rgb(252,72,10)" stroke="rgb(252,72,10)" stroke-width="1" opacity="0.3411764705882353" d="M 250.5 511 L 253 511.5 L 250.5 512 L 250.5 511 Z " /><path fill="rgb(252,72,10)" stroke="rgb(252,72,10)" stroke-width="1" opacity="0.3411764705882353" d="M 259.5 511 L 262 511.5 L 259.5 512 L 259.5 511 Z " /><path fill="rgb(252,72,10)" stroke="rgb(252,72,10)" stroke-width="1" opacity="0.807843137254902" d="M 44.5 0 L 47 0.5 L 44.5 1 L 44.5 0 Z " /><path fill="rgb(252,72,10)" stroke="rgb(252,72,10)" stroke-width="1" opacity="0.807843137254902" d="M 465.5 0 L 468 0.5 L 465.5 1 L 465.5 0 Z " /><path fill="rgb(252,72,10)" stroke="rgb(252,72,10)" stroke-width="1" opacity="0.807843137254902" d="M 38.5 3 L 35.5 7 L 38.5 3 Z " /><path fill="rgb(252,72,10)" stroke="rgb(252,72,10)" stroke-width="1" opacity="0.807843137254902" d="M 473.5 3 L 476.5 7 L 473.5 3 Z " /><path fill="rgb(252,72,10)" stroke="rgb(252,72,10)" stroke-width="1" opacity="0.807843137254902" d="M 32.5 13 L 33 18.5 L 32 18.5 L 32.5 13 Z " /><path fill="rgb(252,72,10)" stroke="rgb(252,72,10)" stroke-width="1" opacity="0.807843137254902" d="M 479.5 13 L 480 18.5 L 479 18.5 L 479.5 13 Z " /><path fill="rgb(252,72,10)" stroke="rgb(252,72,10)" stroke-width="1" opacity="0.807843137254902" d="M 33.5 28 L 34 31.5 L 33 31.5 L 33.5 28 Z " /><path fill="rgb(252,72,10)" stroke="rgb(252,72,10)" stroke-width="1" opacity="0.807843137254902" d="M 478.5 28 L 479 31.5 L 478 31.5 L 478.5 28 Z " /><path fill="rgb(252,72,10)" stroke="rgb(252,72,10)" stroke-width="1" opacity="0.807843137254902" d="M 34.5 41 L 35 44.5 L 34 44.5 L 34.5 41 Z " /><path fill="rgb(252,72,10)" stroke="rgb(252,72,10)" stroke-width="1" opacity="0.807843137254902" d="M 477.5 41 L 478 44.5 L 477 44.5 L 477.5 41 Z " /><path fill="rgb(252,72,10)" stroke="rgb(252,72,10)" stroke-width="1" opacity="0.807843137254902" d="M 35.5 53 L 36 57.5 L 35 57.5 L 35.5 53 Z " /><path fill="rgb(252,72,10)" stroke="rgb(252,72,10)" stroke-width="1" opacity="0.807843137254902" d="M 476.5 53 L 477 57.5 L 476 57.5 L 476.5 53 Z " /><path fill="rgb(252,72,10)" stroke="rgb(252,72,10)" stroke-width="1" opacity="0.807843137254902" d="M 36.5 66 L 37 69.5 L 36 69.5 L 36.5 66 Z " /><path fill="rgb(252,72,10)" stroke="rgb(252,72,10)" stroke-width="1" opacity="0.807843137254902" d="M 475.5 66 L 476 69.5 L 475 69.5 L 475.5 66 Z " /><path fill="rgb(252,72,10)" stroke="rgb(252,72,10)" stroke-width="1" opacity="0.807843137254902" d="M 37.5 79 L 38 82.5 L 37 82.5 L 37.5 79 Z " /><path fill="rgb(252,72,10)" stroke="rgb(252,72,10)" stroke-width="1" opacity="0.807843137254902" d="M 474.5 79 L 475 82.5 L 474 82.5 L 474.5 79 Z " /><path fill="rgb(252,72,10)" stroke="rgb(252,72,10)" stroke-width="1" opacity="0.807843137254902" d="M 38.5 92 L 39 95.5 L 38 95.5 L 38.5 92 Z " /><path fill="rgb(252,72,10)" stroke="rgb(252,72,10)" stroke-width="1" opacity="0.807843137254902" d="M 473.5 92 L 474 95.5 L 473 95.5 L 473.5 92 Z " /><path fill="rgb(252,72,10)" stroke="rgb(252,72,10)" stroke-width="1" opacity="0.807843137254902" d="M 113.5 93 L 399 93.5 L 113.5 94 L 113.5 93 Z " /><path fill="rgb(252,72,10)" stroke="rgb(252,72,10)" stroke-width="1" opacity="0.807843137254902" d="M 113.5 99 L 114 102.5 L 113 102.5 L 113.5 99 Z " /><path fill="rgb(252,72,10)" stroke="rgb(252,72,10)" stroke-width="1" opacity="0.807843137254902" d="M 398.5 99 L 399 102.5 L 398 102.5 L 398.5 99 Z " /><path fill="rgb(252,72,10)" stroke="rgb(252,72,10)" stroke-width="1" opacity="0.807843137254902" d="M 39.5 105 L 40 108.5 L 39 108.5 L 39.5 105 Z " /><path fill="rgb(252,72,10)" stroke="rgb(252,72,10)" stroke-width="1" opacity="0.807843137254902" d="M 472.5 105 L 473 108.5 L 472 108.5 L 472.5 105 Z " /><path fill="rgb(252,72,10)" stroke="rgb(252,72,10)" stroke-width="1" opacity="0.807843137254902" d="M 114.5 112 L 115 115.5 L 114 115.5 L 114.5 112 Z " /><path fill="rgb(252,72,10)" stroke="rgb(252,72,10)" stroke-width="1" opacity="0.807843137254902" d="M 397.5 112 L 398 115.5 L 397 115.5 L 397.5 112 Z " /><path fill="rgb(252,72,10)" stroke="rgb(252,72,10)" stroke-width="1" opacity="0.807843137254902" d="M 40.5 117 L 41 121.5 L 40 121.5 L 40.5 117 Z " /><path fill="rgb(252,72,10)" stroke="rgb(252,72,10)" stroke-width="1" opacity="0.807843137254902" d="M 471.5 117 L 472 121.5 L 471 121.5 L 471.5 117 Z " /><path fill="rgb(252,72,10)" stroke="rgb(252,72,10)" stroke-width="1" opacity="0.807843137254902" d="M 115.5 125 L 116 128.5 L 115 128.5 L 115.5 125 Z " /><path fill="rgb(252,72,10)" stroke="rgb(252,72,10)" stroke-width="1" opacity="0.807843137254902" d="M 396.5 125 L 397 128.5 L 396 128.5 L 396.5 125 Z " /><path fill="rgb(252,72,10)" stroke="rgb(252,72,10)" stroke-width="1" opacity="0.807843137254902" d="M 41.5 130 L 42 133.5 L 41 133.5 L 41.5 130 Z " /><path fill="rgb(252,72,10)" stroke="rgb(252,72,10)" stroke-width="1" opacity="0.807843137254902" d="M 470.5 130 L 471 133.5 L 470 133.5 L 470.5 130 Z " /><path fill="rgb(252,72,10)" stroke="rgb(252,72,10)" stroke-width="1" opacity="0.807843137254902" d="M 116.5 137 L 117 141.5 L 116 141.5 L 116.5 137 Z " /><path fill="rgb(252,72,10)" stroke="rgb(252,72,10)" stroke-width="1" opacity="0.807843137254902" d="M 395.5 137 L 396 141.5 L 395 141.5 L 395.5 137 Z " /><path fill="rgb(252,72,10)" stroke="rgb(252,72,10)" stroke-width="1" opacity="0.807843137254902" d="M 42.5 143 L 43 146.5 L 42 146.5 L 42.5 143 Z " /><path fill="rgb(252,72,10)" stroke="rgb(252,72,10)" stroke-width="1" opacity="0.807843137254902" d="M 469.5 143 L 470 146.5 L 469 146.5 L 469.5 143 Z " /><path fill="rgb(252,72,10)" stroke="rgb(252,72,10)" stroke-width="1" opacity="0.807843137254902" d="M 117.5 150 L 118 153.5 L 117 153.5 L 117.5 150 Z " /><path fill="rgb(252,72,10)" stroke="rgb(252,72,10)" stroke-width="1" opacity="0.807843137254902" d="M 178.5 150 L 179 152.5 L 178 152.5 L 178.5 150 Z " /><path fill="rgb(252,72,10)" stroke="rgb(252,72,10)" stroke-width="1" opacity="0.807843137254902" d="M 43.5 156 L 44 159.5 L 43 159.5 L 43.5 156 Z " /><path fill="rgb(252,72,10)" stroke="rgb(252,72,10)" stroke-width="1" opacity="0.807843137254902" d="M 468.5 156 L 469 159.5 L 468 159.5 L 468.5 156 Z " /><path fill="rgb(252,72,10)" stroke="rgb(252,72,10)" stroke-width="1" opacity="0.807843137254902" d="M 179.5 159 L 180 161.5 L 179 161.5 L 179.5 159 Z " /><path fill="rgb(252,72,10)" stroke="rgb(252,72,10)" stroke-width="1" opacity="0.807843137254902" d="M 118.5 163 L 119 166.5 L 118 166.5 L 118.5 163 Z " /><path fill="rgb(252,72,10)" stroke="rgb(252,72,10)" stroke-width="1" opacity="0.807843137254902" d="M 180.5 168 L 181 170.5 L 180 170.5 L 180.5 168 Z " /><path fill="rgb(252,72,10)" stroke="rgb(252,72,10)" stroke-width="1" opacity="0.807843137254902" d="M 44.5 169 L 45 172.5 L 44 172.5 L 44.5 169 Z " /><path fill="rgb(252,72,10)" stroke="rgb(252,72,10)" stroke-width="1" opacity="0.807843137254902" d="M 467.5 169 L 468 172.5 L 467 172.5 L 467.5 169 Z " /><path fill="rgb(252,72,10)" stroke="rgb(252,72,10)" stroke-width="1" opacity="0.807843137254902" d="M 119.5 176 L 120 179.5 L 119 179.5 L 119.5 176 Z " /><path fill="rgb(252,72,10)" stroke="rgb(252,72,10)" stroke-width="1" opacity="0.807843137254902" d="M 181.5 178 L 182 180.5 L 181 180.5 L 181.5 178 Z " /><path fill="rgb(252,72,10)" stroke="rgb(252,72,10)" stroke-width="1" opacity="0.807843137254902" d="M 45.5 181 L 46 185.5 L 45 185.5 L 45.5 181 Z " /><path fill="rgb(252,72,10)" stroke="rgb(252,72,10)" stroke-width="1" opacity="0.807843137254902" d="M 466.5 181 L 467 185.5 L 466 185.5 L 466.5 181 Z " /><path fill="rgb(252,72,10)" stroke="rgb(252,72,10)" stroke-width="1" opacity="0.807843137254902" d="M 182.5 187 L 183 189.5 L 182 189.5 L 182.5 187 Z " /><path fill="rgb(252,72,10)" stroke="rgb(252,72,10)" stroke-width="1" opacity="0.807843137254902" d="M 120.5 189 L 121 192.5 L 120 192.5 L 120.5 189 Z " /><path fill="rgb(252,72,10)" stroke="rgb(252,72,10)" stroke-width="1" opacity="0.807843137254902" d="M 46.5 194 L 47 197.5 L 46 197.5 L 46.5 194 Z " /><path fill="rgb(252,72,10)" stroke="rgb(252,72,10)" stroke-width="1" opacity="0.807843137254902" d="M 465.5 194 L 466 197.5 L 465 197.5 L 465.5 194 Z " /><path fill="rgb(252,72,10)" stroke="rgb(252,72,10)" stroke-width="1" opacity="0.807843137254902" d="M 183.5 196 L 184 198.5 L 183 198.5 L 183.5 196 Z " /><path fill="rgb(252,72,10)" stroke="rgb(252,72,10)" stroke-width="1" opacity="0.807843137254902" d="M 121.5 202 L 122 205.5 L 121 205.5 L 121.5 202 Z " /><path fill="rgb(252,72,10)" stroke="rgb(252,72,10)" stroke-width="1" opacity="0.807843137254902" d="M 184.5 205 L 185 207.5 L 184 207.5 L 184.5 205 Z " /><path fill="rgb(252,72,10)" stroke="rgb(252,72,10)" stroke-width="1" opacity="0.807843137254902" d="M 47.5 207 L 48 210.5 L 47 210.5 L 47.5 207 Z " /><path fill="rgb(252,72,10)" stroke="rgb(252,72,10)" stroke-width="1" opacity="0.807843137254902" d="M 464.5 207 L 465 210.5 L 464 210.5 L 464.5 207 Z " /><path fill="rgb(252,72,10)" stroke="rgb(252,72,10)" stroke-width="1" opacity="0.807843137254902" d="M 122.5 214 L 123 217.5 L 122 217.5 L 122.5 214 Z " /><path fill="rgb(252,72,10)" stroke="rgb(252,72,10)" stroke-width="1" opacity="0.807843137254902" d="M 389.5 214 L 390 218.5 L 389 218.5 L 389.5 214 Z " /><path fill="rgb(252,72,10)" stroke="rgb(252,72,10)" stroke-width="1" opacity="0.807843137254902" d="M 48.5 220 L 49 223.5 L 48 223.5 L 48.5 220 Z " /><path fill="rgb(252,72,10)" stroke="rgb(252,72,10)" stroke-width="1" opacity="0.807843137254902" d="M 463.5 220 L 464 223.5 L 463 223.5 L 463.5 220 Z " /><path fill="rgb(252,72,10)" stroke="rgb(252,72,10)" stroke-width="1" opacity="0.807843137254902" d="M 123.5 227 L 124 230.5 L 123 230.5 L 123.5 227 Z " /><path fill="rgb(252,72,10)" stroke="rgb(252,72,10)" stroke-width="1" opacity="0.807843137254902" d="M 388.5 227 L 389 230.5 L 388 230.5 L 388.5 227 Z " /><path fill="rgb(252,72,10)" stroke="rgb(252,72,10)" stroke-width="1" opacity="0.807843137254902" d="M 49.5 233 L 50 236.5 L 49 236.5 L 49.5 233 Z " /><path fill="rgb(252,72,10)" stroke="rgb(252,72,10)" stroke-width="1" opacity="0.807843137254902" d="M 462.5 233 L 463 236.5 L 462 236.5 L 462.5 233 Z " /><path fill="rgb(252,72,10)" stroke="rgb(252,72,10)" stroke-width="1" opacity="0.807843137254902" d="M 124.5 240 L 125 243.5 L 124 243.5 L 124.5 240 Z " /><path fill="rgb(252,72,10)" stroke="rgb(252,72,10)" stroke-width="1" opacity="0.807843137254902" d="M 387.5 240 L 388 243.5 L 387 243.5 L 387.5 240 Z " /><path fill="rgb(252,72,10)" stroke="rgb(252,72,10)" stroke-width="1" opacity="0.807843137254902" d="M 50.5 245 L 51 249.5 L 50 249.5 L 50.5 245 Z " /><path fill="rgb(252,72,10)" stroke="rgb(252,72,10)" stroke-width="1" opacity="0.807843137254902" d="M 461.5 245 L 462 249.5 L 461 249.5 L 461.5 245 Z " /><path fill="rgb(252,72,10)" stroke="rgb(252,72,10)" stroke-width="1" opacity="0.807843137254902" d="M 125.5 253 L 126 256.5 L 125 256.5 L 125.5 253 Z " /><path fill="rgb(252,72,10)" stroke="rgb(252,72,10)" stroke-width="1" opacity="0.807843137254902" d="M 386.5 253 L 387 256.5 L 386 256.5 L 386.5 253 Z " /><path fill="rgb(252,72,10)" stroke="rgb(252,72,10)" stroke-width="1" opacity="0.807843137254902" d="M 51.5 258 L 52 261.5 L 51 261.5 L 51.5 258 Z " /><path fill="rgb(252,72,10)" stroke="rgb(252,72,10)" stroke-width="1" opacity="0.807843137254902" d="M 460.5 258 L 461 261.5 L 460 261.5 L 460.5 258 Z " /><path fill="rgb(252,72,10)" stroke="rgb(252,72,10)" stroke-width="1" opacity="0.807843137254902" d="M 385.5 266 L 386 269.5 L 385 269.5 L 385.5 266 Z " /><path fill="rgb(252,72,10)" stroke="rgb(252,72,10)" stroke-width="1" opacity="0.807843137254902" d="M 327.5 270 L 328 274.5 L 327 274.5 L 327.5 270 Z " /><path fill="rgb(252,72,10)" stroke="rgb(252,72,10)" stroke-width="1" opacity="0.807843137254902" d="M 52.5 271 L 53 274.5 L 52 274.5 L 52.5 271 Z " /><path fill="rgb(252,72,10)" stroke="rgb(252,72,10)" stroke-width="1" opacity="0.807843137254902" d="M 459.5 271 L 460 274.5 L 459 274.5 L 459.5 271 Z " /><path fill="rgb(252,72,10)" stroke="rgb(252,72,10)" stroke-width="1" opacity="0.807843137254902" d="M 384.5 278 L 385 282.5 L 384 282.5 L 384.5 278 Z " /><path fill="rgb(252,72,10)" stroke="rgb(252,72,10)" stroke-width="1" opacity="0.807843137254902" d="M 53.5 284 L 54 287.5 L 53 287.5 L 53.5 284 Z " /><path fill="rgb(252,72,10)" stroke="rgb(252,72,10)" stroke-width="1" opacity="0.807843137254902" d="M 326.5 284 L 327 288.5 L 326 288.5 L 326.5 284 Z " /><path fill="rgb(252,72,10)" stroke="rgb(252,72,10)" stroke-width="1" opacity="0.807843137254902" d="M 458.5 284 L 459 287.5 L 458 287.5 L 458.5 284 Z " /><path fill="rgb(252,72,10)" stroke="rgb(252,72,10)" stroke-width="1" opacity="0.807843137254902" d="M 128.5 291 L 129 294.5 L 128 294.5 L 128.5 291 Z " /><path fill="rgb(252,72,10)" stroke="rgb(252,72,10)" stroke-width="1" opacity="0.807843137254902" d="M 383.5 291 L 384 294.5 L 383 294.5 L 383.5 291 Z " /><path fill="rgb(252,72,10)" stroke="rgb(252,72,10)" stroke-width="1" opacity="0.807843137254902" d="M 54.5 297 L 55 300.5 L 54 300.5 L 54.5 297 Z " /><path fill="rgb(252,72,10)" stroke="rgb(252,72,10)" stroke-width="1" opacity="0.807843137254902" d="M 457.5 297 L 458 300.5 L 457 300.5 L 457.5 297 Z " /><path fill="rgb(252,72,10)" stroke="rgb(252,72,10)" stroke-width="1" opacity="0.807843137254902" d="M 325.5 298 L 326 302.5 L 325 302.5 L 325.5 298 Z " /><path fill="rgb(252,72,10)" stroke="rgb(252,72,10)" stroke-width="1" opacity="0.807843137254902" d="M 129.5 304 L 130 307.5 L 129 307.5 L 129.5 304 Z " /><path fill="rgb(252,72,10)" stroke="rgb(252,72,10)" stroke-width="1" opacity="0.807843137254902" d="M 382.5 304 L 383 307.5 L 382 307.5 L 382.5 304 Z " /><path fill="rgb(252,72,10)" stroke="rgb(252,72,10)" stroke-width="1" opacity="0.807843137254902" d="M 55.5 309 L 56 313.5 L 55 313.5 L 55.5 309 Z " /><path fill="rgb(252,72,10)" stroke="rgb(252,72,10)" stroke-width="1" opacity="0.807843137254902" d="M 456.5 309 L 457 313.5 L 456 313.5 L 456.5 309 Z " /><path fill="rgb(252,72,10)" stroke="rgb(252,72,10)" stroke-width="1" opacity="0.807843137254902" d="M 324.5 312 L 325 315.5 L 324 315.5 L 324.5 312 Z " /><path fill="rgb(252,72,10)" stroke="rgb(252,72,10)" stroke-width="1" opacity="0.807843137254902" d="M 130.5 317 L 131 320.5 L 130 320.5 L 130.5 317 Z " /><path fill="rgb(252,72,10)" stroke="rgb(252,72,10)" stroke-width="1" opacity="0.807843137254902" d="M 381.5 317 L 382 320.5 L 381 320.5 L 381.5 317 Z " /><path fill="rgb(252,72,10)" stroke="rgb(252,72,10)" stroke-width="1" opacity="0.807843137254902" d="M 56.5 322 L 57 325.5 L 56 325.5 L 56.5 322 Z " /><path fill="rgb(252,72,10)" stroke="rgb(252,72,10)" stroke-width="1" opacity="0.807843137254902" d="M 455.5 322 L 456 325.5 L 455 325.5 L 455.5 322 Z " /><path fill="rgb(252,72,10)" stroke="rgb(252,72,10)" stroke-width="1" opacity="0.807843137254902" d="M 323.5 326 L 324 329.5 L 323 329.5 L 323.5 326 Z " /><path fill="rgb(252,72,10)" stroke="rgb(252,72,10)" stroke-width="1" opacity="0.807843137254902" d="M 131.5 329 L 132 333.5 L 131 333.5 L 131.5 329 Z " /><path fill="rgb(252,72,10)" stroke="rgb(252,72,10)" stroke-width="1" opacity="0.807843137254902" d="M 380.5 330 L 381 333.5 L 380 333.5 L 380.5 330 Z " /><path fill="rgb(252,72,10)" stroke="rgb(252,72,10)" stroke-width="1" opacity="0.807843137254902" d="M 57.5 335 L 58 338.5 L 57 338.5 L 57.5 335 Z " /><path fill="rgb(252,72,10)" stroke="rgb(252,72,10)" stroke-width="1" opacity="0.807843137254902" d="M 454.5 335 L 455 338.5 L 454 338.5 L 454.5 335 Z " /><path fill="rgb(252,72,10)" stroke="rgb(252,72,10)" stroke-width="1" opacity="0.807843137254902" d="M 132.5 342 L 133 345.5 L 132 345.5 L 132.5 342 Z " /><path fill="rgb(252,72,10)" stroke="rgb(252,72,10)" stroke-width="1" opacity="0.807843137254902" d="M 379.5 342 L 380 345.5 L 379 345.5 L 379.5 342 Z " /><path fill="rgb(252,72,10)" stroke="rgb(252,72,10)" stroke-width="1" opacity="0.807843137254902" d="M 58.5 348 L 59 351.5 L 58 351.5 L 58.5 348 Z " /><path fill="rgb(252,72,10)" stroke="rgb(252,72,10)" stroke-width="1" opacity="0.807843137254902" d="M 453.5 348 L 454 351.5 L 453 351.5 L 453.5 348 Z " /><path fill="rgb(252,72,10)" stroke="rgb(252,72,10)" stroke-width="1" opacity="0.807843137254902" d="M 256.5 352 L 259 352.5 L 256.5 353 L 256.5 352 Z " /><path fill="rgb(252,72,10)" stroke="rgb(252,72,10)" stroke-width="1" opacity="0.807843137254902" d="M 133.5 355 L 134 358.5 L 133 358.5 L 133.5 355 Z " /><path fill="rgb(252,72,10)" stroke="rgb(252,72,10)" stroke-width="1" opacity="0.807843137254902" d="M 378.5 355 L 379 358.5 L 378 358.5 L 378.5 355 Z " /><path fill="rgb(252,72,10)" stroke="rgb(252,72,10)" stroke-width="1" opacity="0.807843137254902" d="M 59.5 361 L 60 364.5 L 59 364.5 L 59.5 361 Z " /><path fill="rgb(252,72,10)" stroke="rgb(252,72,10)" stroke-width="1" opacity="0.807843137254902" d="M 452.5 361 L 453 364.5 L 452 364.5 L 452.5 361 Z " /><path fill="rgb(252,72,10)" stroke="rgb(252,72,10)" stroke-width="1" opacity="0.807843137254902" d="M 134.5 368 L 135 371.5 L 134 371.5 L 134.5 368 Z " /><path fill="rgb(252,72,10)" stroke="rgb(252,72,10)" stroke-width="1" opacity="0.807843137254902" d="M 377.5 368 L 378 371.5 L 377 371.5 L 377.5 368 Z " /><path fill="rgb(252,72,10)" stroke="rgb(252,72,10)" stroke-width="1" opacity="0.807843137254902" d="M 60.5 373 L 61 377.5 L 60 377.5 L 60.5 373 Z " /><path fill="rgb(252,72,10)" stroke="rgb(252,72,10)" stroke-width="1" opacity="0.807843137254902" d="M 451.5 373 L 452 377.5 L 451 377.5 L 451.5 373 Z " /><path fill="rgb(252,72,10)" stroke="rgb(252,72,10)" stroke-width="1" opacity="0.807843137254902" d="M 61.5 386 L 62 389.5 L 61 389.5 L 61.5 386 Z " /><path fill="rgb(252,72,10)" stroke="rgb(252,72,10)" stroke-width="1" opacity="0.807843137254902" d="M 450.5 386 L 451 389.5 L 450 389.5 L 450.5 386 Z " /><path fill="rgb(252,72,10)" stroke="rgb(252,72,10)" stroke-width="1" opacity="0.807843137254902" d="M 62.5 399 L 63 402.5 L 62 402.5 L 62.5 399 Z " /><path fill="rgb(252,72,10)" stroke="rgb(252,72,10)" stroke-width="1" opacity="0.807843137254902" d="M 449.5 399 L 450 402.5 L 449 402.5 L 449.5 399 Z " /><path fill="rgb(252,72,10)" stroke="rgb(252,72,10)" stroke-width="1" opacity="0.807843137254902" d="M 63.5 412 L 64 415.5 L 63 415.5 L 63.5 412 Z " /><path fill="rgb(252,72,10)" stroke="rgb(252,72,10)" stroke-width="1" opacity="0.807843137254902" d="M 448.5 412 L 449 415.5 L 448 415.5 L 448.5 412 Z " /><path fill="rgb(252,72,10)" stroke="rgb(252,72,10)" stroke-width="1" opacity="0.807843137254902" d="M 64.5 425 L 65 428.5 L 64 428.5 L 64.5 425 Z " /><path fill="rgb(252,72,10)" stroke="rgb(252,72,10)" stroke-width="1" opacity="0.807843137254902" d="M 447.5 425 L 448 428.5 L 447 428.5 L 447.5 425 Z " /><path fill="rgb(252,72,10)" stroke="rgb(252,72,10)" stroke-width="1" opacity="0.807843137254902" d="M 65.5 437 L 66 441.5 L 65 441.5 L 65.5 437 Z " /><path fill="rgb(252,72,10)" stroke="rgb(252,72,10)" stroke-width="1" opacity="0.807843137254902" d="M 446.5 437 L 447 441.5 L 446 441.5 L 446.5 437 Z " /><path fill="rgb(252,73,11)" stroke="rgb(252,73,11)" stroke-width="1" opacity="1" d="M 47.5 0 L 464.5 0 L 471.5 2 L 478 8.5 L 479 11.5 L 479 27.5 L 478 28.5 L 478 40.5 L 477 41.5 L 477 52.5 L 476 53.5 L 476 65.5 L 475 66.5 L 473 104.5 L 472 105.5 L 472 116.5 L 471 117.5 L 469 155.5 L 468 156.5 L 468 168.5 L 467 169.5 L 467 180.5 L 466 181.5 L 463 232.5 L 462 233.5 L 462 244.5 L 461 245.5 L 461 256.5 L 460 257.5 L 460 270.5 L 459 271.5 L 458 296.5 L 457 297.5 L 457 308.5 L 456 309.5 L 456 320.5 L 455 321.5 L 455 334.5 L 454 335.5 L 453 360.5 L 452 361.5 L 452 372.5 L 451 373.5 L 451 384.5 L 450 385.5 L 450 398.5 L 449 399.5 L 447 436.5 L 445 447.5 L 440.5 453 L 419.5 461 L 416.5 461 L 296.5 500 L 255.5 512 L 95.5 461 L 92.5 461 L 77.5 456 L 69 450.5 L 66 443.5 L 65 425.5 L 64 424.5 L 62 385.5 L 61 384.5 L 61 373.5 L 60 372.5 L 60 361.5 L 59 360.5 L 57 321.5 L 56 320.5 L 56 309.5 L 55 308.5 L 55 297.5 L 54 296.5 L 52 257.5 L 51 256.5 L 51 245.5 L 50 244.5 L 50 233.5 L 49 232.5 L 46 181.5 L 45 180.5 L 42 130.5 L 41 129.5 L 41 117.5 L 40 116.5 L 37 66.5 L 36 65.5 L 36 53.5 L 35 52.5 L 34 28.5 L 33 27.5 L 33 11.5 Q 34.6 4.6 40.5 2 L 47.5 0 Z M 113 93 L 114 116 L 115 117 L 115 129 L 116 130 L 116 142 L 117 143 L 117 154 L 118 155 L 118 167 L 119 168 L 119 180 L 120 181 L 120 193 L 121 194 L 121 206 L 122 207 L 122 218 L 123 219 L 123 231 L 124 232 L 124 244 L 125 245 L 125 257 L 126 258 L 126 265 L 127 265 L 328 265 L 327 271 L 327 284 L 326 285 L 326 298 L 325 299 L 325 312 L 324 313 L 323 335 L 261 352 L 255 352 L 194 335 L 192 335 L 192 291 L 128 291 L 129 296 L 129 308 L 130 309 L 130 321 L 131 322 L 131 334 L 132 335 L 135 381 L 143 384 L 228 410 L 247 417 L 250 417 L 253 419 L 260 419 L 263 417 L 266 417 L 285 410 L 376 382 L 377 381 L 377 373 L 378 372 L 379 347 L 380 346 L 380 335 L 381 334 L 384 284 L 385 283 L 387 245 L 388 244 L 388 232 L 389 231 L 389 220 L 390 219 L 390 210 L 390 209 L 185 209 L 184 205 L 183 188 L 182 187 L 182 179 L 181 178 L 179 151 L 178 150 L 395 149 L 395 143 L 396 142 L 396 130 L 397 129 L 397 117 L 398 116 L 398 104 L 399 103 L 399 94 L 399 93 L 113 93 Z " /></svg>