<svg viewBox="0 0 512 512" version="1.1" xmlns="http://www.w3.org/2000/svg" desc="Created on https://convert2svg.com/" ><path fill="rgb(232,232,220)" stroke="rgb(232,232,220)" stroke-width="1" opacity="0.49019607843137253" d="M 339.5 0 L 343.5 1 L 452 109.5 L 451.5 111 L 343.5 2 L 339.5 1 L 339.5 0 Z " /><path fill="rgb(232,232,220)" stroke="rgb(232,232,220)" stroke-width="1" opacity="0.49019607843137253" d="M 66.5 1 L 62 6.5 L 60.5 11 L 60 8.5 L 64.5 2 L 66.5 1 Z " /><path fill="rgb(232,232,220)" stroke="rgb(232,232,220)" stroke-width="1" opacity="0.49019607843137253" d="M 59.5 12 L 60 356.5 L 59 356.5 L 59.5 12 Z " /><path fill="rgb(232,232,220)" stroke="rgb(232,232,220)" stroke-width="1" opacity="0.49019607843137253" d="M 452.5 112 L 453 356.5 L 452 356.5 L 452.5 112 Z " /><path fill="rgb(232,232,220)" stroke="rgb(232,232,220)" stroke-width="1" opacity="0.49019607843137253" d="M 59.5 501 Q 59.6 506.4 63 508.5 L 60 506.5 L 59.5 501 Z " /><path fill="rgb(232,232,220)" stroke="rgb(232,232,220)" stroke-width="1" opacity="0.49019607843137253" d="M 452.5 501 L 453 504.5 L 449.5 509 L 450 507.5 L 452.5 501 Z " /><path fill="rgb(232,232,220)" stroke="rgb(232,232,220)" stroke-width="1" opacity="0.49019607843137253" d="M 64.5 509 L 65.5 511 L 64.5 509 Z " /><path fill="rgb(232,232,220)" stroke="rgb(232,232,220)" stroke-width="1" opacity="0.49019607843137253" d="M 447.5 509 L 446.5 511 L 447.5 509 Z " /><path fill="rgb(219,214,197)" stroke="rgb(219,214,197)" stroke-width="1" opacity="0.996078431372549" d="M 343.5 2 L 450.5 110 L 343 110 L 343.5 2 Z " /><path fill="rgb(219,214,197)" stroke="rgb(219,214,197)" stroke-width="1" opacity="0.996078431372549" d="M 171.5 114 L 169.5 117 L 171.5 114 Z " /><path fill="rgb(219,214,197)" stroke="rgb(219,214,197)" stroke-width="1" opacity="0.996078431372549" d="M 332.5 115 L 333.5 117 L 332.5 115 Z " /><path fill="rgb(219,214,197)" stroke="rgb(219,214,197)" stroke-width="1" opacity="0.996078431372549" d="M 335.5 118 L 336.5 120 L 335.5 118 Z " /><path fill="rgb(219,214,197)" stroke="rgb(219,214,197)" stroke-width="1" opacity="0.996078431372549" d="M 166.5 119 L 165.5 121 L 166.5 119 Z " /><path fill="rgb(219,214,197)" stroke="rgb(219,214,197)" stroke-width="1" opacity="0.996078431372549" d="M 195.5 123 L 194.5 125 L 195.5 123 Z " /><path fill="rgb(219,214,197)" stroke="rgb(219,214,197)" stroke-width="1" opacity="0.996078431372549" d="M 181.5 130 L 180.5 132 L 181.5 130 Z " /><path fill="rgb(219,214,197)" stroke="rgb(219,214,197)" stroke-width="1" opacity="0.996078431372549" d="M 178.5 136 L 179 174.5 L 178 174.5 L 178.5 136 Z " /><path fill="rgb(219,214,197)" stroke="rgb(219,214,197)" stroke-width="1" opacity="0.996078431372549" d="M 324.5 137 L 325 175.5 L 324 175.5 L 324.5 137 Z " /><path fill="rgb(219,214,197)" stroke="rgb(219,214,197)" stroke-width="1" opacity="0.996078431372549" d="M 252.5 155 L 255 155.5 L 252.5 156 L 252.5 155 Z " /><path fill="rgb(219,214,197)" stroke="rgb(219,214,197)" stroke-width="1" opacity="0.996078431372549" d="M 242.5 158 L 240.5 161 L 242.5 158 Z " /><path fill="rgb(219,214,197)" stroke="rgb(219,214,197)" stroke-width="1" opacity="0.996078431372549" d="M 159.5 175 L 160 177.5 L 159 177.5 L 159.5 175 Z " /><path fill="rgb(219,214,197)" stroke="rgb(219,214,197)" stroke-width="1" opacity="0.996078431372549" d="M 262.5 177 L 259.5 181 L 262.5 177 Z " /><path fill="rgb(219,214,197)" stroke="rgb(219,214,197)" stroke-width="1" opacity="0.996078431372549" d="M 346.5 184 L 349.5 188 L 346.5 184 Z " /><path fill="rgb(219,214,197)" stroke="rgb(219,214,197)" stroke-width="1" opacity="0.996078431372549" d="M 155.5 185 L 153.5 188 L 155.5 185 Z " /><path fill="rgb(219,214,197)" stroke="rgb(219,214,197)" stroke-width="1" opacity="0.996078431372549" d="M 143.5 191 L 146 191.5 L 143.5 192 L 143.5 191 Z " /><path fill="rgb(219,214,197)" stroke="rgb(219,214,197)" stroke-width="1" opacity="0.996078431372549" d="M 357.5 191 L 360 191.5 L 357.5 192 L 357.5 191 Z " /><path fill="rgb(219,214,197)" stroke="rgb(219,214,197)" stroke-width="1" opacity="0.996078431372549" d="M 136.5 193 L 134.5 196 L 136.5 193 Z " /><path fill="rgb(219,214,197)" stroke="rgb(219,214,197)" stroke-width="1" opacity="0.996078431372549" d="M 367.5 194 L 368.5 196 L 367.5 194 Z " /><path fill="rgb(219,214,197)" stroke="rgb(219,214,197)" stroke-width="1" opacity="0.996078431372549" d="M 332.5 196 L 337 201.5 L 336 201.5 L 332.5 196 Z " /><path fill="rgb(219,214,197)" stroke="rgb(219,214,197)" stroke-width="1" opacity="0.996078431372549" d="M 169.5 197 L 166.5 201 L 169.5 197 Z " /><path fill="rgb(219,214,197)" stroke="rgb(219,214,197)" stroke-width="1" opacity="0.996078431372549" d="M 132.5 200 L 133 202.5 L 132 202.5 L 132.5 200 Z " /><path fill="rgb(219,214,197)" stroke="rgb(219,214,197)" stroke-width="1" opacity="0.996078431372549" d="M 136.5 208 L 137.5 210 L 136.5 208 Z " /><path fill="rgb(219,214,197)" stroke="rgb(219,214,197)" stroke-width="1" opacity="0.996078431372549" d="M 141.5 210 L 144 210.5 L 141.5 211 L 141.5 210 Z " /><path fill="rgb(219,214,197)" stroke="rgb(219,214,197)" stroke-width="1" opacity="0.996078431372549" d="M 359.5 210 L 362 210.5 L 359.5 211 L 359.5 210 Z " /><path fill="rgb(219,214,197)" stroke="rgb(219,214,197)" stroke-width="1" opacity="0.996078431372549" d="M 245.5 221 L 244.5 223 L 245.5 221 Z " /><path fill="rgb(219,214,197)" stroke="rgb(219,214,197)" stroke-width="1" opacity="0.996078431372549" d="M 257.5 221 L 258.5 223 L 257.5 221 Z " /><path fill="rgb(219,214,197)" stroke="rgb(219,214,197)" stroke-width="1" opacity="0.996078431372549" d="M 324.5 226 L 325 264.5 L 324 264.5 L 324.5 226 Z " /><path fill="rgb(219,214,197)" stroke="rgb(219,214,197)" stroke-width="1" opacity="0.996078431372549" d="M 178.5 227 L 179 265.5 L 178 265.5 L 178.5 227 Z " /><path fill="rgb(219,214,197)" stroke="rgb(219,214,197)" stroke-width="1" opacity="0.996078431372549" d="M 322.5 270 L 320.5 273 L 322.5 270 Z " /><path fill="rgb(219,214,197)" stroke="rgb(219,214,197)" stroke-width="1" opacity="0.996078431372549" d="M 193.5 276 L 194.5 278 L 193.5 276 Z " /><path fill="rgb(219,214,197)" stroke="rgb(219,214,197)" stroke-width="1" opacity="0.996078431372549" d="M 309.5 276 L 308.5 278 L 309.5 276 Z " /><path fill="rgb(219,214,197)" stroke="rgb(219,214,197)" stroke-width="1" opacity="0.996078431372549" d="M 164.5 280 L 165.5 282 L 164.5 280 Z " /><path fill="rgb(219,214,197)" stroke="rgb(219,214,197)" stroke-width="1" opacity="0.996078431372549" d="M 332.5 286 L 331.5 288 L 332.5 286 Z " /><path fill="rgb(219,214,197)" stroke="rgb(219,214,197)" stroke-width="1" opacity="0.996078431372549" d="M 194.5 289 L 193.5 291 L 194.5 289 Z " /><path fill="rgb(219,214,197)" stroke="rgb(219,214,197)" stroke-width="1" opacity="0.996078431372549" d="M 308.5 289 L 309.5 291 L 308.5 289 Z " /><path fill="rgb(219,214,197)" stroke="rgb(219,214,197)" stroke-width="1" opacity="0.996078431372549" d="M 183.5 292 L 186 292.5 L 183.5 293 L 183.5 292 Z " /><path fill="rgb(219,214,197)" stroke="rgb(219,214,197)" stroke-width="1" opacity="0.996078431372549" d="M 316.5 292 L 319 292.5 L 316.5 293 L 316.5 292 Z " /><path fill="rgb(219,214,197)" stroke="rgb(219,214,197)" stroke-width="1" opacity="0.996078431372549" d="M 60.5 356 L 452 356.5 L 60.5 357 L 60.5 356 Z " /><path fill="rgb(219,214,197)" stroke="rgb(219,214,197)" stroke-width="1" opacity="0.996078431372549" d="M 223.5 390 L 237 390.5 L 223.5 391 L 223.5 390 Z " /><path fill="rgb(219,214,197)" stroke="rgb(219,214,197)" stroke-width="1" opacity="0.996078431372549" d="M 266.5 399 L 264.5 402 L 266.5 399 Z " /><path fill="rgb(219,214,197)" stroke="rgb(219,214,197)" stroke-width="1" opacity="0.996078431372549" d="M 287.5 403 L 294 403.5 L 287.5 404 L 287.5 403 Z " /><path fill="rgb(219,214,197)" stroke="rgb(219,214,197)" stroke-width="1" opacity="0.996078431372549" d="M 303.5 405 L 302.5 407 L 303.5 405 Z " /><path fill="rgb(219,214,197)" stroke="rgb(219,214,197)" stroke-width="1" opacity="0.996078431372549" d="M 268.5 434 L 269.5 436 L 268.5 434 Z " /><path fill="rgb(219,214,197)" stroke="rgb(219,214,197)" stroke-width="1" opacity="0.996078431372549" d="M 302.5 439 L 303.5 441 L 302.5 439 Z " /><path fill="rgb(219,214,197)" stroke="rgb(219,214,197)" stroke-width="1" opacity="0.996078431372549" d="M 298.5 458 L 299 460.5 L 298 460.5 L 298.5 458 Z " /><path fill="rgb(219,214,197)" stroke="rgb(219,214,197)" stroke-width="1" opacity="0.996078431372549" d="M 295.5 468 L 294.5 470 L 295.5 468 Z " /><path fill="rgb(219,214,197)" stroke="rgb(219,214,197)" stroke-width="1" opacity="0.996078431372549" d="M 62.5 507 L 63.5 509 L 62.5 507 Z " /><path fill="rgb(219,214,197)" stroke="rgb(219,214,197)" stroke-width="1" opacity="0.996078431372549" d="M 449.5 507 L 448.5 509 L 449.5 507 Z " /><path fill="rgb(0,0,0)" stroke="rgb(0,0,0)" stroke-width="1" opacity="0" d="M 0 0 L 68 0.5 L 63 3.5 L 59 12.5 L 59 504.5 L 62.5 509 L 67 511.5 L 0 512 L 0 0 Z " /><path fill="rgb(0,0,0)" stroke="rgb(0,0,0)" stroke-width="1" opacity="0" d="M 342.5 0 L 511.5 0 L 512 0.5 L 512 512 L 445 511.5 L 452 506.5 L 453 504.5 L 453 112.5 L 452 109.5 L 343.5 1 L 342.5 0 Z " /><path fill="rgb(233,233,224)" stroke="rgb(233,233,224)" stroke-width="1" opacity="0.996078431372549" d="M 70.5 0 L 73 0.5 L 70.5 1 L 70.5 0 Z " /><path fill="rgb(233,233,224)" stroke="rgb(233,233,224)" stroke-width="1" opacity="0.996078431372549" d="M 67.5 1 L 66.5 3 L 67.5 1 Z " /><path fill="rgb(233,233,224)" stroke="rgb(233,233,224)" stroke-width="1" opacity="1" d="M 73.5 0 L 337.5 0 L 343 2 L 343 110 L 450.5 110 L 451 111.5 L 452 112.5 L 452 356 L 60 356 L 60 12.5 L 65.5 3 L 73.5 0 Z M 187 109 L 178 111 L 172 114 Q 163 120 160 132 L 160 175 L 157 184 L 148 191 L 137 193 L 132 201 L 133 206 L 138 210 L 147 211 L 153 214 L 157 219 L 160 228 L 160 272 L 164 281 Q 170 290 184 293 Q 190 294 194 291 L 197 285 L 195 278 L 190 274 Q 183 275 181 272 L 179 269 L 179 228 Q 177 226 178 221 Q 175 208 166 202 Q 175 194 178 182 Q 177 176 179 175 L 179 134 L 184 129 L 193 127 L 197 121 L 196 115 Q 194 109 187 109 Z M 316 109 L 312 110 L 306 117 L 307 124 Q 310 129 320 129 L 324 135 L 324 176 Q 327 177 325 183 Q 328 194 336 201 L 336 203 L 329 211 L 325 220 Q 327 225 324 227 L 324 269 L 320 273 L 310 276 L 306 282 Q 305 287 308 290 L 314 293 Q 325 293 332 288 Q 340 282 343 271 L 343 227 L 346 219 L 354 212 L 367 209 L 371 202 L 369 196 L 365 192 L 356 191 L 352 189 Q 345 185 343 177 L 343 132 L 337 120 L 326 111 L 316 109 Z M 249 155 L 243 158 L 240 161 L 237 169 L 238 175 L 240 178 L 248 183 Q 256 184 260 181 L 265 174 L 265 165 L 262 159 L 255 155 L 249 155 Z M 250 219 L 246 221 L 242 227 L 242 259 L 248 265 L 257 264 L 261 258 L 261 228 L 259 223 Q 256 219 250 219 Z " /><path fill="rgb(233,233,224)" stroke="rgb(233,233,224)" stroke-width="1" opacity="1" d="M 223 391 L 237.5 391 L 238 391.5 L 238 464.5 L 236 472.5 L 228.5 481 L 215.5 485 L 203.5 485 L 189.5 481 L 182 476.5 L 188.5 467 L 201.5 472 L 214.5 472 L 222 466.5 L 223 463.5 L 223 391 Z " /><path fill="rgb(233,233,224)" stroke="rgb(233,233,224)" stroke-width="1" opacity="1" d="M 283.5 391 L 299.5 392 L 308 395 L 302.5 406 L 298.5 404 L 287.5 403 Q 279.9 404.4 276 409.5 Q 272.8 412.8 274 420.5 L 280.5 428 L 295.5 435 L 307 443.5 L 312 452.5 L 312 464.5 Q 309.6 474.1 302.5 479 Q 293.9 486.4 276.5 485 L 264.5 482 L 259 479 L 261 469.5 L 262.5 468 L 276.5 473 L 288.5 473 L 296 468.5 L 298 465.5 L 299 458.5 L 296 451 L 274.5 439 L 265 431.5 L 260 421.5 L 260 411.5 L 263 403.5 L 267 398 L 275.5 393 L 283.5 391 Z " /><path fill="rgb(238,195,125)" stroke="rgb(238,195,125)" stroke-width="1" opacity="0.9098039215686274" d="M 168.5 117 L 167.5 119 L 168.5 117 Z " /><path fill="rgb(238,195,125)" stroke="rgb(238,195,125)" stroke-width="1" opacity="0.9098039215686274" d="M 308.5 124 L 309.5 126 L 308.5 124 Z " /><path fill="rgb(238,195,125)" stroke="rgb(238,195,125)" stroke-width="1" opacity="0.9098039215686274" d="M 160.5 132 L 161 134.5 L 160 134.5 L 160.5 132 Z " /><path fill="rgb(238,195,125)" stroke="rgb(238,195,125)" stroke-width="1" opacity="0.9098039215686274" d="M 342.5 133 L 343 135.5 L 342 135.5 L 342.5 133 Z " /><path fill="rgb(238,195,125)" stroke="rgb(238,195,125)" stroke-width="1" opacity="0.9098039215686274" d="M 177.5 178 L 178 180.5 L 177 180.5 L 177.5 178 Z " /><path fill="rgb(238,195,125)" stroke="rgb(238,195,125)" stroke-width="1" opacity="0.9098039215686274" d="M 241.5 178 L 242.5 180 L 241.5 178 Z " /><path fill="rgb(238,195,125)" stroke="rgb(238,195,125)" stroke-width="1" opacity="0.9098039215686274" d="M 248.5 182 L 251 182.5 L 248.5 183 L 248.5 182 Z " /><path fill="rgb(238,195,125)" stroke="rgb(238,195,125)" stroke-width="1" opacity="0.9098039215686274" d="M 252.5 182 L 255 182.5 L 252.5 183 L 252.5 182 Z " /><path fill="rgb(238,195,125)" stroke="rgb(238,195,125)" stroke-width="1" opacity="0.9098039215686274" d="M 168.5 204 L 170.5 207 L 168.5 204 Z " /><path fill="rgb(238,195,125)" stroke="rgb(238,195,125)" stroke-width="1" opacity="0.9098039215686274" d="M 134.5 206 L 135.5 208 L 134.5 206 Z " /><path fill="rgb(238,195,125)" stroke="rgb(238,195,125)" stroke-width="1" opacity="0.9098039215686274" d="M 332.5 206 L 331.5 208 L 332.5 206 Z " /><path fill="rgb(238,195,125)" stroke="rgb(238,195,125)" stroke-width="1" opacity="0.9098039215686274" d="M 350.5 213 L 349.5 215 L 350.5 213 Z " /><path fill="rgb(238,195,125)" stroke="rgb(238,195,125)" stroke-width="1" opacity="0.9098039215686274" d="M 153.5 214 L 155.5 217 L 153.5 214 Z " /><path fill="rgb(238,195,125)" stroke="rgb(238,195,125)" stroke-width="1" opacity="0.9098039215686274" d="M 347.5 216 L 346.5 218 L 347.5 216 Z " /><path fill="rgb(238,195,125)" stroke="rgb(238,195,125)" stroke-width="1" opacity="0.9098039215686274" d="M 325.5 220 L 326 222.5 L 325 222.5 L 325.5 220 Z " /><path fill="rgb(238,195,125)" stroke="rgb(238,195,125)" stroke-width="1" opacity="0.9098039215686274" d="M 177.5 221 L 178 223.5 L 177 223.5 L 177.5 221 Z " /><path fill="rgb(238,195,125)" stroke="rgb(238,195,125)" stroke-width="1" opacity="0.9098039215686274" d="M 242.5 227 L 243 256.5 L 242 256.5 L 242.5 227 Z " /><path fill="rgb(238,195,125)" stroke="rgb(238,195,125)" stroke-width="1" opacity="0.9098039215686274" d="M 260.5 228 L 261 255.5 L 260 255.5 L 260.5 228 Z " /><path fill="rgb(238,195,125)" stroke="rgb(238,195,125)" stroke-width="1" opacity="0.9098039215686274" d="M 258.5 261 L 257.5 263 L 258.5 261 Z " /><path fill="rgb(238,195,125)" stroke="rgb(238,195,125)" stroke-width="1" opacity="0.9098039215686274" d="M 342.5 266 L 343 268.5 L 342 268.5 L 342.5 266 Z " /><path fill="rgb(238,195,125)" stroke="rgb(238,195,125)" stroke-width="1" opacity="0.9098039215686274" d="M 160.5 267 L 161 269.5 L 160 269.5 L 160.5 267 Z " /><path fill="rgb(238,195,125)" stroke="rgb(238,195,125)" stroke-width="1" opacity="0.9098039215686274" d="M 306.5 282 L 307 284.5 L 306 284.5 L 306.5 282 Z " /><path fill="rgb(238,195,125)" stroke="rgb(238,195,125)" stroke-width="1" opacity="0.9098039215686274" d="M 336.5 282 L 333.5 286 L 336.5 282 Z " /><path fill="rgb(238,195,125)" stroke="rgb(238,195,125)" stroke-width="1" opacity="0.9098039215686274" d="M 169.5 285 L 170.5 287 L 169.5 285 Z " /><path fill="rgb(238,195,125)" stroke="rgb(238,195,125)" stroke-width="1" opacity="0.9098039215686274" d="M 59.5 357 L 60 500.5 L 59 500.5 L 59.5 357 Z " /><path fill="rgb(238,195,125)" stroke="rgb(238,195,125)" stroke-width="1" opacity="0.9098039215686274" d="M 452.5 357 L 453 500.5 L 452 500.5 L 452.5 357 Z " /><path fill="rgb(238,195,125)" stroke="rgb(238,195,125)" stroke-width="1" opacity="0.9098039215686274" d="M 222.5 391 L 223 461.5 L 222 461.5 L 222.5 391 Z " /><path fill="rgb(238,195,125)" stroke="rgb(238,195,125)" stroke-width="1" opacity="0.9098039215686274" d="M 278.5 407 L 277.5 409 L 278.5 407 Z " /><path fill="rgb(238,195,125)" stroke="rgb(238,195,125)" stroke-width="1" opacity="0.9098039215686274" d="M 259.5 415 L 260 417.5 L 259 417.5 L 259.5 415 Z " /><path fill="rgb(238,195,125)" stroke="rgb(238,195,125)" stroke-width="1" opacity="0.9098039215686274" d="M 278.5 425 L 279.5 427 L 278.5 425 Z " /><path fill="rgb(238,195,125)" stroke="rgb(238,195,125)" stroke-width="1" opacity="0.9098039215686274" d="M 312.5 460 L 313 462.5 L 312 462.5 L 312.5 460 Z " /><path fill="rgb(238,195,125)" stroke="rgb(238,195,125)" stroke-width="1" opacity="0.9098039215686274" d="M 220.5 467 L 218.5 470 L 220.5 467 Z " /><path fill="rgb(238,195,125)" stroke="rgb(238,195,125)" stroke-width="1" opacity="0.9098039215686274" d="M 306.5 475 L 304.5 478 L 306.5 475 Z " /><path fill="rgb(238,195,125)" stroke="rgb(238,195,125)" stroke-width="1" opacity="0.9098039215686274" d="M 181.5 476 L 182.5 478 L 181.5 476 Z " /><path fill="rgb(238,195,125)" stroke="rgb(238,195,125)" stroke-width="1" opacity="0.9098039215686274" d="M 231.5 478 L 230.5 480 L 231.5 478 Z " /><path fill="rgb(238,175,75)" stroke="rgb(238,175,75)" stroke-width="1" opacity="1" d="M 182.5 110 Q 190.8 109 194 112 L 196 115.5 L 196 121.5 L 191.5 127 L 184.5 128 L 179 132.5 L 178 135.5 L 178 177.5 Q 175.8 178.7 177 183.5 Q 173.3 194.3 166 201.5 Q 174 208 177 219.5 L 178 224.5 L 178 267.5 L 183.5 274 Q 191.8 273.8 195 278.5 L 196 286.5 L 192.5 291 Q 189 293.5 181.5 292 Q 172.6 289.4 167 283.5 L 162 275.5 L 160 266.5 L 160 224.5 L 153.5 214 Q 149.5 209 139.5 210 L 134 205.5 L 133 198.5 L 137.5 193 L 146.5 192 Q 153.3 189.8 157 184.5 L 160 178.5 L 160 135.5 Q 162.3 134.3 161 129.5 Q 164.5 119.5 172.5 114 L 182.5 110 Z " /><path fill="rgb(238,175,75)" stroke="rgb(238,175,75)" stroke-width="1" opacity="1" d="M 313.5 110 Q 331.5 110 338 121.5 L 341 127.5 L 343 136.5 L 343 178.5 Q 344.8 185.7 350.5 189 L 356.5 192 L 364.5 193 L 369 196.5 L 370 203.5 L 365.5 209 L 354.5 211 L 346 217.5 L 343 223.5 L 343 265.5 Q 340.8 266.8 342 271.5 Q 338.9 282.4 330.5 288 L 321.5 292 L 312.5 292 L 308 288.5 L 307 280.5 L 310.5 276 L 319.5 274 L 324 269.5 L 325 266.5 L 325 223.5 Q 328 209 337 200.5 Q 327.9 193.1 325 179.5 L 325 135.5 L 320.5 129 L 311.5 127 L 307 122.5 L 307 115.5 L 309 112 L 313.5 110 Z " /><path fill="rgb(238,175,75)" stroke="rgb(238,175,75)" stroke-width="1" opacity="1" d="M 247.5 156 Q 259.7 154.3 263 161.5 Q 265.7 164.8 265 171.5 Q 263.5 178 258.5 181 L 251.5 183 L 244.5 181 L 240 176.5 Q 237 173.5 238 166.5 Q 239.3 160.8 243.5 158 L 247.5 156 Z " /><path fill="rgb(238,175,75)" stroke="rgb(238,175,75)" stroke-width="1" opacity="1" d="M 248.5 220 Q 256.8 218.7 259 223.5 L 260 225.5 L 260 259.5 Q 257.8 264.8 250.5 265 L 245 263 L 243 259.5 L 243 225.5 L 246.5 221 L 248.5 220 Z " /><path fill="rgb(238,175,75)" stroke="rgb(238,175,75)" stroke-width="1" opacity="1" d="M 60 357 L 452 357 L 452 502.5 L 447.5 509 L 439.5 512 L 72.5 512 L 64.5 509 L 62 506.5 L 60 502.5 L 60 357 Z M 224 390 L 222 392 L 222 465 L 221 467 Q 218 471 212 472 L 204 472 L 188 467 L 181 477 L 191 482 L 202 485 L 220 485 L 231 480 Q 236 476 238 469 L 238 391 L 238 390 L 224 390 Z M 281 391 L 270 396 L 262 405 L 259 416 L 260 424 L 263 430 L 274 439 L 293 449 L 298 456 Q 299 464 296 468 Q 293 472 287 473 L 275 472 L 261 468 L 259 479 L 264 482 L 274 485 L 291 485 L 305 478 Q 311 473 313 463 L 312 452 L 309 446 L 302 438 L 285 430 L 277 425 L 274 418 L 276 411 Q 279 406 286 404 Q 297 402 303 407 L 309 396 Q 299 389 281 391 Z " /></svg>